<svg xmlns="http://www.w3.org/2000/svg" width="437.27" height="100.93" viewBox="700.09 442.05 327.96 75.7">
  <g fill="#ff6600" stroke="#50514f" stroke-linecap="round" stroke-linejoin="round">
    <path d="M1023.84 510.52q-1.1.09-1.93.14-.84.05-3.29.1l-6.37.12-6.12.1q-2.2.06-4.38.09-2.17.03-6.45.17l-5.6.18q-1.33.03-5.2.16-3.86.14-8 .26l-6.27.17-3.65.08-5.64.13-8.01.18q-3.9.07-8.03.11-4.15.04-8.88 0l-7.79-.09-6.2-.06q-3.17-.02-7.39-.1-4.21-.09-8.38-.14l-4.9-.07q-.74 0-7.22-.1-6.48-.1-9.22-.16l-4.38-.09-4.38-.08q-2.74-.06-5.22-.09l-6.64-.1q-4.15-.08-10.86-.15-6.7-.06-11.2-.06l-5.8.01q-1.31.01-7.27.12l-11.39.2-12.25.24-7.34.17-5.39.12-11.87.24-11.14.24q-4.13.09-13.16.24-9.02.14-13.41.24-4.4.1-9.78.18-5.39.09-26.6.31M1023.76 446.26q-.49.05-1.45.1-.97.05-2.51.08l-2.1.03q-.56 0-4.97.14l-6.98.21q-2.57.07-5.83.1-3.26.02-7.55.1-4.3.08-5.29.07l-5.25.04-7.34.1q-3.07.06-6.54.06-3.46 0-5.72-.03-2.25-.02-7.18-.01l-16.1-.02q-11.18-.03-15.29-.09-4.1-.06-8.65-.1l-6.22-.06-6.43-.1-8.5-.09-6.77-.04q-3.01-.02-8.6 0-5.6 0-15.5.15-9.92.14-13.1.2l-7.56.12q-4.37.07-9.75.18-5.38.1-13.98.3l-11.28.23-8.77.15q-6.07.11-9.8.12l-6.58.03q-2.84 0-7.01.07l-6.16.1q-2 .02-6.85.03l-7.96.01h-10.5q-4.44.02-7.18.05-2.74.03-5.8.04-3.06.02-8.07.02l-18.33.01M1023.76 446.26l-.76.74q-.4.48-2.08 2.25-1.68 1.78-2.93 3.06l-2.09 2.12q-.83.83-2.87 2.93l-4.2 4.3-3.81 3.97q-1.68 1.75-3.47 3.58l-3.52 3.63-2.53 2.59-1.78 1.82-2.18 2.09M1023.84 510.52q-1.27-1.42-2.43-2.65l-2.07-2.2q-.92-.97-2.8-2.9-1.86-1.94-2.8-2.88l-2.15-2.19-1.98-1.99q-.74-.74-1.89-1.83l-2.59-2.5q-1.44-1.4-3.06-2.89-1.62-1.48-2.42-2.18l-1.86-1.64q-1.06-.94-3.58-3.09l-2.67-2.24M734.77 479.89q-.28.34-2.48 2.8l-3.42 3.82-1.94 2.18q-.72.83-1.3 1.47l-1.6 1.83-1.3 1.5q-.27.31-4.73 5.78-4.45 5.48-5.42 6.71-.97 1.23-2.22 2.88l-2.65 3.49-.87 1.18M734.77 479.89q-.11-.12-4.59-4.35-4.48-4.24-7.76-7.47-3.28-3.23-4.52-4.51-1.25-1.29-3.18-3.32-1.93-2.04-2.83-3.02-.9-.98-2.12-2.37l-2.69-3.02q-1.08-1.26-1.23-1.46l-1.54-1.8"/>
  </g>
</svg>
