<svg xmlns="http://www.w3.org/2000/svg" viewBox="698.4 506.8 325.5 74.3">
<g fill="#E3B23C" stroke="#E3B23C" stroke-linecap="round" stroke-linejoin="round" stroke-width=".5">
  <path d="M1020.3 574.6l-1.1-1.2-.4-.4-.7-.7-.7-.8-.2-.1-.5-.6-1-1-1.2-1.2-1-1-.7-.7-1.4-1.4-1.5-1.5-.9-1-1.2-1.1-1.3-1.4-1.3-1.2-.8-.9-1-1-1.5-1.4-1.1-1-1.3-1.3-1.4-1.3-2.2-2-2.2-2-1.2-1.1-1.3-1.2-2-1.8-1.3-1.3-1.2-1.1-.8-.8-.9-.8-.5-.6-.7-.7-1.5-1.5-1.4-1.3-.8-1-.7-.6-.9-.8-.9-.9-1.3-1.2-1.7-1.6-1.1-1-.6-.5-.9-.8-1.1-1-.8-.6-.7-.5-.7-.6-.6-.4-.6-.5-.7-.5-1.4-1-2-1.3-1.2-.8-1.3-.8-1.5-1-1.2-.6-1-.7-.8-.4-1-.6-1.2-.6-1.3-.6-1.2-.5-.8-.4-.6-.3-.5-.2-.7-.3-.8-.3-.7-.2-.7-.2-.7-.3-1-.2-.9-.2-.3-.1-.6-.1-.8-.2h-.7l-.8-.2-1-.1h-1l-.6-.1H937l-.6-.1h-3.3l-1-.1h-9l-1.9-.1H918.6l-.4-.1H916l-2.5-.1h-3-.5l-1.2-.1h-1.4l-1.4-.1H901.6l-2.2-.1h-35.3l-2.4.1H856l-1 .1h-6.1l-1.3.1h-2.7l-1.9.1h-2l-1.3.1h-1.2l-1.6.2h-2.4l-.7.1h-1l-1.2.1h-.7l-.4.1h-1.7l-1.7.2h-1.8l-1.2.1H817.8l-.7.1h-13.8l-1 .1h-5.1l-.7.1H795"/>
  <path d="M703.3 577.6l1.3-1.7 1-1.3.7-.8.4-.5.7-.9 1-1.3 1-1.2 1-1.3 1.1-1.4 1.5-1.8 1.2-1.5 1-1.2.9-1 .8-1 .8-1 .9-1 .7-.8.9-1 1.3-1.6 1-1.2 1.2-1.2 1-1.2 1-1 .9-.8.7-.7 1.4-1.4 1.9-1.7 2-1.6 1.1-1 .9-.6 1.4-1 1.4-1 1-.8.9-.5 1.2-1 1.2-.8 1-.8 1.2-.8 1-.7 1-.7.8-.7 1-.7 1-1 1.6-1.2 1.7-1.4 1.3-1.1 1.4-1.2 1.4-1 .9-.8 1.4-1 1-1 1.3-.8 3-2.1 2.7-1.8 1-.6 1.3-.7 1.8-1 1.3-.6.7-.4.7-.2.8-.4.8-.3 1.4-.5 1.6-.4 1.1-.3 1.2-.2 1.2-.2 1-.1 1.7-.2 1.7-.2h3.1l2.4-.1H796.4l2 .2 2 .1h1.5l.7.1h1.2l.8.1 1.8.2 1.1.1 1.3.1 1 .1 1.5.2 1.6.2 1.3.2q.6 0 1.6.3l1.6.2 1 .2 2.4.4 2.6.6 3.5.8 3.7.8 2 .5.8.2 1 .2 1.5.3 1.5.4 1.9.4 2.7.5 2.9.6 1.7.3 3.6.6 4 .6q.9 0 1.6.2l2.5.4 4.7.7q3 .5 4.8 1l3.8.8 3 .8 1.7.4 1.7.5 2.5.6 3 .8 3.7 1 2.9.9 1.4.4 2.5.8 4.1 1.4 3.6 1.3 2.7 1 1.9.8 2 .8 2 1 2.7 1 3 1.3 1.7.7 3 1.2 3.4 1.3 1.8.6 1.5.5 2 .5 3.7.9 3.3.6 1.4.3q.7 0 1.1.2h.7l.5.2 1.6.3q.6 0 1 .2l.6.1.8.2.7.2 1.9.4 2.3.5 1.2.4.7.2 1.2.4 2 .8 2 .7.9.5.8.5.5.3.9.6 1.2 1 .8.7.8.8 1 1.2 1.1 1.7 1 1.7.4 1 .4 1.2.4 1.3.1.6.2.8q.2.6.2 1.4v2.5l-.4 1-.4.6-.2.1q-.1.2-.7.4-.5.3-.8.3l-.6.2h-2.2l-.8.1-1.5-.1-4.2-.7-6.2-1.2-6.6-1.3-7.6-1.6-7.5-1.4-4.9-.8-5.3-.8-7.3-1.1-5.4-.7-3.8-.2-3.4-.2h-4.3l-4.3.2-5.4.5-3.1.4-1.8.3q-.6 0-2.8.5l-4 1-3.2 1-2 .8-2 .8-1.6.8-1.2.7-.8.4-.5.4-.6.4-.5.2-.8.5-3.2 1.6-3 1.4-.6.3-.6.3-.6.4-1.3.7"/>
  <path d="M843.7 575h.3l.8.1 1.1.1h1.2l1.2.2h2.2l1 .1h1.9l1.3.1h1.2l.9.1h1.3l1.2.1 1.4.1h2.1l1.2.1h1.5l1.8.2h34.5l2.2.1h1.8l2 .1h1.5l1 .1h3.2l2.5.1h4.4l1.8.1H938l1-.1h3l1.1-.1h2.2l1.3-.1h3.3l1.4-.1h2.4l2.1-.1H972.6l1.5-.1h1.6l1.1-.1h3.2l.7-.1h2.3l1.3-.1h1.8l1-.1h1.5l2.4-.1 2-.1h1.3l1.6-.1h1.7l1.3-.2h1.7l1.8-.2h1.5l1.2-.1h1l.7-.1 1.3-.1 1.4-.1 1.1-.1.9-.2h.7l.4-.2.5-.1.6-.2.4-.3.1-.1.2-.2v-.3l-.2-.4-.5-.7-.6-.6-1.2-1-1.2-1-.8-.5-1-.6-1.7-1.1-2-1.2-2.8-1.4q-1.7-.9-2.6-1.2l-1.7-.7-1.6-.6-2.8-.8-3.6-1.1-3.9-1.1-3.2-.9-1.8-.4-2.2-.6-2.7-.6-3.8-.9-4.4-1-3.3-.7-3.7-1-3.4-.8-3.2-.8-2.5-.5-2.5-.5-2.5-.4-1.7-.2-3-.4-3.5-.4-2-.2h-1l-2.4-.2-4.7-.2H917.3l-2.8.1-2.3.1-2 .1h-1.6l-1.7.2h-2l-1.6.1-1.4.1h-1.4l-.9.1"/>
  <path d="M989.6 575.6h.5l.6-.1.4-.1h.7l.6-.1H1006.4l.4-.1h.3l.6-.1h2.1l.6-.1h2.5l.3-.1h6l.2-.1.3-.1V574.4l-.2-.2q-.2 0-.3-.2h-.2l-.3-.2-.3-.2-.3-.1-.4-.2-.4-.2-.3-.1-.5-.2-.4-.2-.3-.1-.2-.2-.3-.1-.3-.1h-.1l-.2-.2-1.4-.5M988 543.4h.2l.6-.4.5-.4.4-.4.3-.3.1-.2.2-.2.3-.3.2-.3.1-.1.2-.2.2-.2.3-.4.3-.3.3-.3.2-.2.3-.3.4-.4.3-.3.2-.2.4-.4.6-.7.5-.5.4-.4.4-.3.2-.3.3-.3.3-.3.4-.3.5-.6.6-.6.5-.5.3-.4.6-.6.9-.9.6-.5.2-.3.4-.4.7-.7.7-.7.8-1 .8-.7.4-.4.2-.4.7-.7 1-1 .8-.8 1-1 .9-.8.6-.5.4-.5.6-.6 1.1-1.2 1-1 .5-.6.3-.4.2-.3.3-.3.4-.5.4-.4.2-.2.3-.3.3-.4.4-.4.6-.6.5-.5.2-.2.2-.2.2-.3.2-.3.1-.3v-.1q0 0 0 0h-.1l-.2-.2h-.3l-.2-.1h-.2l-.3-.1h-.4-.3l-.3-.1h-.5-.3l-.5-.1h-1.5H1010h-.7l-1.3.1h-1.5-.6l-.3.1h-.3-5.9l-.5.1h-.7l-1 .1h-1.6-.2-.2-1.8l-.7-.1h-.2H991.6 984l-.3.1h-2.2H975h-1.9l-1 .1h-.8-.5l-.8.1h-.3H968.8h-3.2H964.7h-2.3H952l-.5.1H950l-.7-.1h-2l-.5-.1H945.6h-1.1l-.6.1h-2l-.4.1H938.4l-.4.1-.6.1-.5.2-.9.2-1 .3-.7.3M795 512.2l-.1.1-.4.1-.3.1h-1l-.7.1h-1H788.8l-.7-.1h-9.5-3.5l-1 .1h-2l-.4.1H756l-.8-.1H746h-1.9l-1.1-.1h-1H734.2l-.7.1h-3l-1 .1h-1.2l-1 .1h-4.5-.3l-.6-.1h-.9l-.8-.2h-1.2l-1.3-.2h-2.3l-.8.1-.9.1-1.1.1h-2.7l-.6.1h-.4H705.2l-1 .1q-.6 0-1 .2-.4 0-.6.2v.4l.1.3.2.3v.3l.2.1.5.7.5.8.5.5.4.5.4.6.4.5.3.5.4.4.4.5.7.8.6.6.4.4.8.9.7.6.4.5.3.3.5.6.6.6.3.3.5.5 1 1 .9.8.5.5.4.3.4.4.5.5.3.3.4.3.5.5.2.2.2.2q0 0 0 0l.3.3.7.6.5.6.7.6.5.6.4.3.5.4 1.2 1 1 1.1.7.6.5.4.5.6.5.5.5.4.7.6.6.7.5.4.2.2.3.3.5.5.5.5.5.5.5.5.6.5.5.5.5.4.3.4h.2q0 .2.2.2 0 0 0 0l-.5-.5"/>
  <path d="M719.2 557.8h0l.3-.3.3-.3.5-.6.3-.3.3-.4.2-.2.3-.3.5-.5.3-.4.5-.5.4-.4.3-.3q0-.2.2-.3l.5-.5.4-.6.2-.2.3-.3q0-.2.5-.7l1-1.2 1.1-1.3.9-1 .6-.7.4-.5.3-.3.3-.3.2-.2.4-.4.5-.4.5-.3.4-.2h.2l.2-.1h.3l.4-.1h1.4l.5.1.5.2h.3l.3.1h1.5"/>
  <path d="M707 512.7h-.5H703l-.5.1-.2.1-.1.1v.1l-.1.1.1.3.2.4q0 .2.2.3v.1l.5.6h0l.6.7.3.2.3.4.3.3.2.2.6.7.7.8.5.6.5.6.4.6.4.4.3.4.3.4.3.3.2.3.3.3.3.4.5.6.4.4.4.5.4.5.4.5.5.6.3.3.4.4.6.7.5.6.4.4.5.4.7.8 1 .8.5.6.4.4.3.3.4.4.6.6 1.3 1.2 1.2 1.1.6.6.5.4.7.7.9.9.5.5 2.5 2.3 2.6 2.5.7.6.5.4.6.4.6.5.6.3.5.3.4.1.3.1h1q.8 0 3-1.1M991 511.4h2l.4-.1h1.3l.8-.1h1.7l.7-.1h.6l.7-.1h.5l.6-.1H1001.6l.6-.1h1l1.3-.1H1011.8l.4-.1H1018.3l.4.2.1.1.1.1v.3l-.3.4-.3.3-.3.3-.1.1-.2.2-.3.2-.3.4-.3.3-.2.1-.1.2-.2.1-.1.2-.2.1-.1.1-.2.2v.1l-.2.1-.2.2-.2.2-.3.3-.2.2-.4.4-.5.6"/>
</g>
</svg>
