<svg xmlns="http://www.w3.org/2000/svg" width="437.3" height="100.9" viewBox="696.6 506.1 328 75.7">
  <g stroke="#50514f">
    <path fill="none" stroke-linecap="round" stroke-linejoin="round" d="M1020.3 574.6l-1.9.2h-3.3l-6.3.2h-6.2l-4.3.2-6.5.1-5.6.2-5.2.2-8 .2-6.3.2h-3.6l-5.7.2-8 .2-8 .1h-16.7l-6.2-.1-7.4-.1-8.3-.2h-5l-7.2-.1-9.2-.2-4.4-.1h-4.3l-5.3-.2h-6.6l-10.9-.2h-24.2l-11.4.2-12.3.3-7.3.2h-5.4l-11.9.3-11.1.3-13.2.2-13.4.2-9.8.2-26.6.3M1020.3 510.4h-1.5l-2.5.1h-2.1l-5 .2-7 .2-5.8.1-7.5.1h-5.3l-5.3.1-7.3.1h-50.8l-8.7-.2h-6.2l-6.4-.1-8.5-.1H875l-15.5.1-13.1.2-7.6.1-9.7.2-14 .3-11.3.2-8.7.2-9.9.1h-6.5l-7 .1h-6.2l-6.8.1H733l-5.9.1h-26.4M1020.3 510.4l-.8.7-2 2.3-3 3-2.1 2.1-2.9 3-4.2 4.3-3.8 4-3.4 3.5-3.6 3.6-2.5 2.6-1.8 1.9-2.2 2M1020.3 574.6l-2.4-2.6-2-2.2-2.9-3-2.7-2.8-2.2-2.2-2-2-1.9-1.8-2.6-2.5-3-2.9-2.4-2.2-1.9-1.6q-1-1-3.6-3.1l-2.7-2.3M731.3 544l-2.5 2.8-3.4 3.8-2 2.2-1.3 1.5-1.6 1.8-1.3 1.5-4.7 5.8q-4.5 5.4-5.4 6.7l-2.2 2.9-2.7 3.5-.9 1.1M731.3 544l-4.6-4.4-7.8-7.4-4.5-4.5-3.2-3.4-2.8-3-2.1-2.3-2.7-3-1.3-1.5-1.5-1.8"/>
    <path fill="none" stroke-linecap="round" stroke-linejoin="round" stroke-width="40" d="M946.7 545v0zM939.5 546.7l-3.7.3-5.5.4-3.2.3-5 .5-6 .7-3.5.4-2.5.3-5.4.3q-4.4.3-7.1.3h-10.8l-2.3-.2h-1.3l-3.4-.2-5.7-.3-6-.4-6.2-.3-4.8-.2-3.7-.2-7.1-.2-8.2-.2h-8.7l-6.2-.1-6.6-.3q-2.4 0-4.1-.2l-3.2-.2-3.2-.2-5.2-.3-6.4-.3-3.9-.1-3.6-.1h-18.4l-2.7-.1h-2.7"/>
    <path fill="none" stroke-linecap="round" stroke-linejoin="round" stroke-width="19.9" d="M965.2 534l-.4.4q-1 1-1.3 1.5l-1 1-.9 1.4-.5 1v.5h.5l1-.2 1.5-.6 2-.7 1.5-.5 1.3-.3h2.8l1.3-.4 1.5-.6 1.1-.5.9-.5.7-.3 1.1-.6 1.5-.8 1-.7.7-.4.6-.4.7-.5.7-.5 1-.7 1.1-1 1-.7 1-.7.5-.5.8-.6 1.3-1.1 1.2-1.1M981.2 522.5h-1.4l-9.3.1-10.2.3-3.4.1h-3l-4.5.1h-10.6l-1.1-.1H914.5l-4 .1h-4.9l-5.6.1-4.1.1-3.4.1-6.6.2-8.5.2h-5.6l-3.4.1h-2.8l-4.7.2h-5.4l-11 .3-9.2.2H811l-1.5-.1-6-.3-10.7-.5-6.3-.3h-15.2l-3.8.2-3.5.1h-3l-1.5.1-2.2.1h-2.8l-2 .1h-5.2l-3.5-.1-3-.2h-1.3l-.8-.1-1.1-.1-1.9-.2-3.5-.4-4.3-.5-.6-.1M978.6 564.2H977l-2.7.2h-2l-3.1.2-4.3.1h-4.3l-3 .1h-8.6l-4 .2-6 .1q-3 0-5.7.2l-3.7.1-4.3.1-4.7.1h-27.9l-4.7-.1-7.5-.4-6.5-.3-3.5-.3-2-.1-4.1-.3-5.3-.3-3-.1H839l-2.5.1-3 .1h-4.2l-3.7.1h-5l-5-.1H813l-3.2-.1-5.4-.1-4.7-.1H796l-3.4-.1h-2.8l-4-.1-5.6-.1-4.5-.1H769.5l-5-.1h-8.8l-2.4.2-2 .2-3 .3-2.4.2h-1l-1 .1-1.7.1h-3.5l-1-.2-.7-.1-.5-.2-.4-.1-.3-.2-.6-.5-.3-.8v-1-.9l.2-.7.3-1 .4-.8.2-.7.8-1.7.7-1.6.3-.5.3-.5.3-.6.7-1.6 1-2.4.8-1.7.4-1 .4-.7.5-.9.6-.8.5-.6q.1-.3.4-.5l.5-.5.5-.5.7-.4 1-.4 1.1-.4.7-.2h.3l.7-.1 1-.1h.9l.9-.2M961 551.9h1l1.7.1q1.5 0 3 .3h.8l1 .3q.5 0 1.4.3l1.2.3.4.2.7.3.5.3.6.3.9.4 1 .6 1.4.8"/>
    <path fill="none" stroke-linecap="round" stroke-linejoin="round" stroke-width="4" d="M1003.4 518.2h0l-.4.5-.5.8-.3.5-.2.3V520.6l-.1.4v.4l-.2.4q-.2.4-.3 1.6h.2l.4-.1.3-.1h.2l-.4.5-1.8 1.8-3 2.8-2.6 2.3-2.5 2.3-3 3-2.1 2.3-1.2 1.3-1 1.2-.6.7-.3.3-.2.5q-.3.3-.3.5V543q0 0 0 0h.2l.7-.5q.7-.4 1-.8l1.3-1.1 1.1-1 .6-.7.6-.7.6-.6 1-1 .9-1"/>
    <path fill="none" stroke-linecap="round" stroke-linejoin="round" stroke-width="4" d="M1013.9 513.3l-1.4 1.3-2.4 2-2 2-2.2 2.2-1.4 1.5-.5.4-.7.8-.5.5-.8.9-1 1-.4.5-1 1-2 2.1-1.9 2-.8.9-.8.8-1 1-.7.7-1.6 1.6-1.8 1.8-1.5 1.5-1 1.1-.9.8-.7.7-1 1-1.8 1.8-1.6 1.5-1 1-1 .9-2.6 2.3M1007.9 513.6h.1l-.2.3v-.1q-.1 0 0 0l-1.7.4-3 .2h-3.9q-.7.2-1.5.1l-1.8.1-1.8.1q-1 0-1.6.3-.7.3-2.1.4l-2.5.2h-2l-2 .1q-1.2 0-2.1.2l-3.7.1h-3"/>
    <path fill="none" stroke-linecap="round" stroke-linejoin="round" stroke-width="4" d="M1004 517q-.2 0-.2.7l-2.3.7q-2.3.6-5.5.7-.2-.4 1.2-.7l2.8-.5 2-.3 5.4-.1-8.4 1.1q0 0 0 0h1.1q1.3 0 4-.4 2.6-.4 5.6-1.2 0 0 0 0l-3.7-.1q-.4-.3 3.2-1.8-.2 0-2.4 1.4l-3.4 2q-1.2.7-2.6 1.8l-5 3.5-5.2 3.5-2.7 2-1.3 1.3q-.5.5-1.4 2l-1.5 2.5-1.5 2.4q-.8 1.3-1.3 2.6-.4 1.2-.5 2.1l-.3 1.8q-.1.7-.7 1.8h.5l.5-.3q0-.2-2 0 0 0 0 0l.2-.2q.2-.2.2-.5v-.3M1012 571.4h-.5l-2.4.2H1003.5l-1-.2q-.5-.1-2.6.2l-3.6.4-2 .1H986.1q-1.2 0-1.6.2-.4.2-1.5.1h-1.9q-.8 0-1.2.2h-.7l-.4.2h-.1l-.3.1q-.2.2-1.5.1h-3.3l-.5.1-.2.1h-.4l-.3.2-1.1.1h-2.1q0 0 0 0t0 0h-4.8l-2.2-.1h-1.8l-2.1-.1h-5.6-1l-1.6.2-1.1.2-1.4.1h-1.2l-1 .2h-2-.3l-.4-.1h-.3q0 0 0 0h-.1l-1-.1H930.3l-.5-.1h-.2-.2q0 0 0 0t0 0h-.4l-2.5.2-.2-.3-.1-.3M1014 570.9q0 0 0 0h.1q0 0 0 0h.2l.4.2q0 0 0 0l-.6-.3-.7-.6-.6-.5-.8-.6-.4-.4-.5-.7-1-1-1.3-1-.7-.7-.5-.7-.6-.6-.6-.5-.5-.8-.7-1-.5-.5-.4-.3h-.4l-.4-.3-.3-.3-.6-.5-.7-.7-.4-.5-.2-.2-.4-.5-.7-.8-.8-.5-.7-.8-.7-.8-.4-.6-.5-.4-.5-.3-.4-.3-.3-.3-.3-.3-.5-.4-.7-.8-.6-.8-.6-.5-.7-.6-.7-.6-.3-.2-.5-.5-.7-.6-.5-.4-.4-.3-.3-.3-.4-.3-.4-.3-.2-.3-.2-.1-.1-.2h-.1q0-.1 0 0v-.1l-.9-.7q-.7-.5-1.1-1l-.9-.7.2.2.3.2"/>
    <path fill="none" stroke-linecap="round" stroke-linejoin="round" stroke-width="4" d="M1005.6 562.4v-.2l-.4-.7-.7-.8-.4-.4-.4-.2-.3-.2-.2-.1q0 0 0 0l-.3-.2-.3-.4v-.3-.2q0 0 0 0t0 0l-.1-.1-.1-.2h-.1v-.2q0 0 0 0h-.1l-.1-.2-.2-.1q0 0 0 0l-.2-.1-.7-.3.4.3.6.8.7 1 .7 1.1 1 1.4q-.2 0-.6-.4l-.9-.7-.5-.3-1-1-2.3-1.7-3.2-2.2.7.8 2.5 2.2 2.7 2.6 1.5 1.3.7.7.5.7-.4-.4-.9-.8-1.1-1.1-1.5-1.4-2-1.9-2.3-1.7q-1-.6-1.5-1.1l-2-1.4h0q-.1.2 1.8 1.9l3.1 2.7 2 1.7.8.9.8.8q.6.5 1.5 1.7l-.4-.4-1.8-1.5-2.4-2-2.1-1.6-1.6-1-1-.6-1.3-.7q-1-.6-2.9-1.3 0 .2 1.2 1l2 1.5q.9.5 2.6 1.8l2.7 2 1.3 1.1 1.1.9q.7.5 1.7 1.7h0l-1-.6-1.7-1.4-1.5-1.2-1-.8-1.3-1-1.5-1.1-.8-.6-1.8-1q-1.5-.9-3.5-1.8l.5.5 1.7 1.2 1.5 1.1 1 .7 1.3 1 2.2 1.7 2 1.7 1 .9.5.5.5.5q0 .2-1.2-.7l-2-1.5-1.4-1.2-.9-.6-1-.7-1-.6-1.4-1-2.1-1.1q-1-.6-1.9-.9 0 .2 2 1.7l3.6 2.7 2.3 1.9 1.3 1.1.9.9q.4.4.6.9h-.4l-.8-.5-1-.7-1.4-1-2.1-1.6-1.9-1.2-1-.7-2.2-1.3 1.1 1 2.1 1.7 1.4 1.2.9.7.9.8 1.2 1.2q.6.6 1 1.4 0 .2-1-.6l-2.4-1.7-2.5-1.7-2.2-1.2q-.2.2 1 1.3l2.1 2 1.6 1.6.8.8.4.6q-.3.1-1.8-1l-2.3-1.7-1.1-1-.7-.3q-.1.2.9 1.2l1.5 1.6 1 1q.3.4.4.9-.1.1-1.3-.6l-3.2-2.1.7.9q.7.7 1.3 1.7l-3.2-1.7.6.6 1 1.2q-.2.2-1.5-1l.8 1-2.4-2h0q.2 0 .7.5.6.4 1.5 1.4-.2 0-.8-.6l-1.2-1.4q-.6-.8-1-1.7l-.6-1.4-.2-1.2v-.9l.1-.6.4-.4.4-.3 1.4-.2h4l-1.2-.8-2.4-1.3-2-1.3-1.3-.8-.6-.5-.5-.4q-.3-.2-.4-.7h.6q.6 0 1.4.4l1.5.5 1.3.5 1 .4 1.4.6 3.2 1.4h0q0-.2-.7-.8l-2.1-2-2.4-2.1-1.4-1.2-.9-.8-1-1q-.7-.5-1.3-1.4 0-.3 2 .9l3.1 1.8 2 1.3 1.4 1 1 .9-.2-.1-.7-.6-1.9-1.5q-1.3-1.1-2.3-1.7l-1.4-1q-.6-.3-1.4-1l-1.4-.8-.8-.8h.6q.5.1 2.3 1l2.7 1.5 1.4.8 1.6 1 1.8 1 1 .7 2.5 2-.8-.7-1.3-1.1-.9-.9-.8-.6-1.2-1-2-1.4-2-1.6-2-1.4q.2-.2 1.7.7l2.6 1.4 2 1.4 1.6 1.1 1.1 1 1 1-.5-.1-.8-.6-1.5-1-2.1-1.8q-1.2-1-3.2-2.2-.2 0 .8.6l1.8 1.5 1.4 1.4.9.9.9 1 1.2 1.4 1.8 1.9 1.8 1.7.9.8.7.8.8 1 .7.7 1 .9 1.2 1 1.2 1.1 1.1 1 .5.6.3.2.6.6.7.6.5.4.4.2.5.3.4.4.3.4q.2.3.6.5l1.3.6-1.1-1-2-1.8q-.7-.7-1.5-1.2l.5.4 1 1 1 1.2q.7.8 1 1.5 0 .2-1.4-1l-2.3-1.7-1.8-1.3-2-1v.2l.7 1 1 1.3.6.8.2.7q-.2.2-1-.5l-2-1.3-2-1.2q-.2 0 .7 1 1 1 2 2.4 0 .2-1-.5l-1.5-1-.9-.6q-.3-.2-.7-.2-.2.1.3.7l.7.9.3.5.2.4h-.3l-1-.8-1.9-1.2q-.1.1.3.7l.7 1q.3.3.4.7h-.5l-1.6-1.1.7 1q0 .2-.7-.2-.6-.4-1.4-.6v.5q0 .2-.7 0l-.6-.2M1010.5 573.5h-.7q-.2 0-.3-.2h-.3l-.3-.1h-2l-1.4.1h-2.7l-.7.1h-4.6l-.6.1-1.2.1h-8l-1.2.1H985.6h-2l-1.3-.1h-1.8l-1 .1-1.6.2h-3.4-.7l-1 .1h-.7l-.9.1H969.5l-1 .1h-.6l-.5.1-.7.1H964l-.7-.1h-4.4l-1 .1-1 .1-1.3.2h-1.7l-1.2-.1h-4.5l-.2.1h-.2-.2-.3l-.4.1h-.4q0 0 0 0h-.1-.1q0 0 0 0H944.8v-.1-.1"/>
    <path fill="none" stroke-linecap="round" stroke-linejoin="round" stroke-width="4" d="M943 573.8l-.1.2v.1q0 0 0 0h-.4l-.5.2h-.3l-.2.2h.8q0 0 0 0h-1.9l-1.7-.2h2.3q0 .2-1.5.2H937l-1.5-.1H931h-3.3l-.7-.1h-1.5l-1.9-.2h-5.5l-1.3-.1H914l-1.8-.1h-1.5H909 908.3h-.6q0 0 0 0l-.9.2-1.9.1q0 0 0 0v-.2"/>
    <path fill="none" stroke-linecap="round" stroke-linejoin="round" stroke-width="4" d="M919.5 574.4q0 0 0 0l-.4.1-1 .1-.8.1h-.3-.8q0 0 0 0H912.4l-1-.2h-.6l-.4-.1h-.1v-.1h-1-.1-.1q0 0 0 0h-.4q0 0 0 0v-.2M903.8 574.4q0 0 0 0t0 0 0 0 0 0 0 0h-.2-.1q-.1 0 0 0 0 0 0 0l-.1-.1h-.7-.1q0 0 0 0h-.2-1l-.6-.1h-.4-.2H898.5l-1-.1H889h-2.8l-1.3-.1h-.8H881.2q0 0 0 0h-.2q0 0 0 0h-.4-.2l-.1-.1h-.1q0 0 0 0H878.5l-.6-.1h-4.3-.1q0 0 0 0H872.9h-.2q0 0 0 0t0 0h-.1l-.6.1-.7.1h-1.4q0 0 0 0t0 0 0 0H865.4l-.9-.1h-1l-.8-.2h-.8l-.3-.1H858.1h-8.6l-.5-.1h-.2q0 0 0 0h-.1q0 0 0 0h-1.1-.1-.4-.1l-.5-.1h-1.6l-.6.1h-.5q0 0 0 0t0 0h-1.2l-.8.1q0 0 0 0v-.1-.2M840.3 571.9h-.2l-.1.2q0 0 0 0l-1.1.3-2.6.5q0 0 0 0h2.3l.8-.1h.5l.4.1H840.6l.1.2q.1.1.1 0v.1h-.1l-.5.1h-2.5l-1.8.2-1.5.2h-3.7-.2-.1-1.1l-1.5.2h-3.3l-1.4.1h-1.9l-1.6-.1h-1.2l-.4.1h-1l-.2.1h-.1-.1l-.8.1H809.7l-2.6.1h-2.8l-.6-.1h-.4l-.4-.1h-.2q0 0 0 0h-.2q0 0 0 0h-.2-.1H800.5h-1.7-.2-.1-.2-.5-.1q0 0 0 0H793.5l-.6-.1h-.5l-.4-.1H790.8l-1-.1h-5.4l-1.3.2-1.2.1-2.4.2h-4.1l-2-.2h-4.9l-1.5.1h-3.5l-1.2-.1-2-.2-2.2-.2-1.2-.1h-1.2l-1.6-.2h-3.3q-2 0-3.7-.2l-2.4-.1-1.1-.1h-3.7l-2.3.3q-1 0-4.1.5 0 0 0 0h2.9l1.4.1 1.3.2 1 .1.7.1H743.5l1.2.2H747.6l.7.1h.9q.1 0 0 0h4.1l1-.1h4.5l.8-.1h.6l.6-.1h3.2l.9.1H766l.2.1h3.7l.8.1h2.6q0 0 0 0t0 0l-1.6.1-2.6.2H759.5h-.5q0 0 0 0t0 0h-.1-.2q0 0 0 0h-.3l.2-.2.2-.1M718.5 566.2l-.2.6q-.2.4-1 .7-.2 0 .8-1l1.5-1.3 1.2-1.4 1.4-1.8 1.4-2 1.4-1.6q.8-.7 1.5-1.6l.9-1.3.4-.7.5-1h0l-.2.1-.7 1-2 2.4-2.3 2.6-1.2 1.2-1.2 1.2-1.2 1.3-.8.8-1 .7.8-.8 1.4-1.5q.5-.7 1.1-1.2l1.5-1.9 1.7-2 .9-1.4.6-.9.8-1 1-1.7.7-1.3.5-1 .3-.8.3-.5.5-.5.5-.7.3-.6.2-.4.1-.2.1-.1v-.1q0 0 0 0l.1-.2.1-.1q0 0 0 0t0 0v-.1l.2-.1-.5.8q-.3.7-.8 1.3l-.8.9-.8.7-.7.8-.4.4-.2.3-.2.2-.2.3-.2.3h-.1v.2l-.6.5-.7.7-.3.3-.1.2q-.1 0 0 0l-.2.2-.4.3-.3.3-.2.3-.1.1q0 0 0 0l-.4.5-.6.7-.5.6-.4.4-.5.4-.3.3-.3.3-.4.5-.3.4-.2.3-.1.2-.2.2q0 0 0 0l-.3.5-.9 1.2-.9 1-.3.5-.2.3-.1.1q0 0 0 0t0 0 0 0 0 0l-.2.4-.4.6-.3.3v.1l-.2.2-.3.4-.3.3-.2.2v.1q0 0 0 0l-.2.2-.2.2-.2.1q0 0 0 0v.1l-.3.3-.3.4-.3.4-.2.2q0 .2-.2.3l-.1.2h-.1l-.1.2-.2.2-.2.2q0 0 0 0l-.1.2h-.1l-.1.1q0 0 0 0v.1l-.4.4-.4.4-.2.4q0 0 0 0t0 0h.4l.7-.6 1.4-1 1.3-1 1.2-.9 2.2-1.5 3-2.4 2.6-2 2-1.3-1.2 1.2q-1.1 1.3-2.9 3l-2.8 2.5-1.7 1.7-2 1.9h0q.4.2 2-1.2l2.7-2.4 1.6-1.4 1.4-1.3 1.5-1.5 1.2-1.2 1.1-1-1.4 1.3-2.5 2.7-1.8 1.8-.8.9-.8.8-.8.9-.5.5-1 .9q.2 0 1.8-1.4l3.3-3 2.8-2.4q1-1 1.8-1.5l-1.7 1.6-2.5 2.4-1.5 1.5-1.1 1.2-.9.8 1-1 1.8-1.7q1-.7 2.2-1.9l2.2-2 1.7-1.6q0 .2-1.6 1.8l-2.4 2.4-1.3 1.2-.5.5-.4.4 1-.9 1.8-1.6q.7-.8 1.8-1.6l1.5-1.5.4-.7"/>
    <path fill="none" stroke-linecap="round" stroke-linejoin="round" stroke-width="4" d="M718.4 569.3q0 0 0 0h.2q.2-.2.7-.3l1.5-.3 2.1-.7 3.4-1 3.4-1 2.1-.6 3.3-.5q.1.4-4 1.7l-6.1 1.8-3.3 1-2.8.6 1.4-.3 2-.5 3-.6 3.7-.7 2-.4 3-.4-1 .3-2.2.8-4 1-4 .9-2.2.4q-.8.2-1.4.6l.2.1q0 0 0 0h.3l1.9-.1 3.5-.4q1.7-.2 6-1.1-.1-.1-2 .4l-4 1-3.3.6-2 .4q-.8.2-1.3.6h2.5l2.7-.3 3.1-.4 3.5-.4q1.3-.2 2.3-.1 0 .2-4 1-4.2.7-9.3 1.2h0l1.2-.2 3.6-.5 4-.4q1.3 0 2-.2l4-.2-3.7.6q-3.7.7-7.6 1.2l1.3-.1 2-.2 2.8-.1 3-.1h1.5l1 .1-1.2.2-3.2.5q-1.9.2-3.6.7h1.1q1.2 0 10-.9l-1.5.1-3 .4-3.2.5.1.1h1.3l1.4-.1.8-.1q.3 0 .4-.2v-.2"/>
    <path fill="none" stroke-linecap="round" stroke-linejoin="round" stroke-width="4" d="M749.5 575.2q.1.1-.5.1h-1.2l-1 .1h-2.7q-.6.2-1.8 0l-1.8-.1h-1.2l-1.3-.1h-4.4q-.3 0-.5-.2l-.4-.2M756.6 574.6l-2.2.3q0 0 0 0l1.5.1h-1.4l-.2-.2M728.4 574l.1.1.5.2V574.6l-.1.1h.4q0 0 0 0h.2q.3 0 .6.3h-.1q-.1 0 0 0h-.1l-.3.1-.3.1-.3.1h-.4v.1h-.2q0 0 0 0h-.8l-.2.1h-.1q0 0 0 0h-3.6-.4l-.7-.1-.3-.2h-.2-.3l-.4-.1h-.2-2.7-.8q0 0 0 0h-.1-.2q0 0 0 0t0 0h-1.2H716h-.2l-.4.1h-.4-.4q0 0 0 0t0 0l-.4.1H713q0 0 0 0t0 0h-.8q-.1 0 0 0h.4l.2-.2.1-.2"/>
    <path fill="none" stroke-linecap="round" stroke-linejoin="round" stroke-width="4" d="M722.3 574.9q0 0 0 0v.2h-.2l-.2.1H721l-.1.1h-.2-.2-.3q.1.1 0 .1h1.1q0 0 0 0l-2.5.3h0l-.6-.2-.7-.5q-.2-.2-.6-.2h-1l.6-.3q.8-.3 1.4-1l-4.5.3q0 0 0 0l1-.4 1.6-.4q.7-.2 1-.6-.1-.3-4.6 1 .3 0 1.7-1h0q0-.2-2 .4l.2-.1.6-.3-.6.2q-.7.1-1.1.4l-1.6 1v.1q-.1 0 0 0 0 0 0 0l-.2.2h-.1l-.1.1h-.1q0 0 0 0t0 0l-.2.2h-.1l-.1.2q0 0 0 0t0 0l-.1.2 2-.7-.2.2h-.1l-.3.3.6.1v.1l-.4-.1q-.3-.2-1-.2h.2q.2-.3.3-1.3h-.4l.2-.3.2-.4.2-.3M736 533.4v.2q-.1.2-1.6.2l1-.1h2.7l3.5.2-2.4-.3-3.7-.5-2-.3q-.7 0-2.6-.4-2-.3-4.2-1.1 0-.3 3 .5l4.6 1.2 2.5.8q.8.2 2.2 1l-1.3-.1-1.7-.4-1.3-.4-2.2-.6-2.7-.8-1.6-.5-1.3-.4-2.9-1.3h.8l2.1.7 2.5.9 2.4 1 2.2 1 1.8.9q1 .5 1.8 1.3-.1.2-1.7 0-1.7-.4-9.9-3.8l2 1 3.5 1.6 2.2 1.2 1.2.6 1 .8q0 .2-1.5-.2l-2.8-1.1-2.3-1.1q-.8-.5-2.7-1.3l.2.2.4.3 1 .6 1.3.8 1.1.6 1.5.7 1.7 1 1.2 1-2.6-1q-2.4-1-5.7-2 0 .2 1.8 1.3l4 2.6-.6-.4.1.2.2.5q0 .3.2.5l.3.3.2.1v.2q0 0 0 0l.1.8q0 0 0 0l-.2-.5-.9-.8-1-.7-.5-.4-.2-.4-.1-.4q-.2-.3-.5-.4l-.5-.4-.4-.2-.2-.1q0 0 0 0l-.3-.3-.4-.4-.2-.2-.2-.1-.1-.2-.2-.1v-.2l-.6-.4-.7-.6-.5-.3-.2-.1-.2-.2-.2-.2q0 0 0 0l-.2-.3-.6-.5-.4-.5-.2-.5-.1-.2-.3-.3-.4-.5-.4-.4-.2-.2-.3-.4-.6-.7-.6-.5-.3-.3-.6-.6-.8-.6-.4-.5-.3-.3-.1-.2-.1-.1-.1-.1-.5-.5-1-1-.8-.7-.3-.3-.2-.2v-.1l-.1-.1-.1-.1h-.1l-.3-.3-.6-.7-.8-.6-.8-.6-.4-.4-.2-.2-.4-.4-.6-.3-.3-.3-.4-.3-.4-.3-.2-.2q0 0 0 0l-.2-.2q0 0 0 0t0 0l-.1-.1q0 0 0 0l-.1-.1-.1-.2-.2-.2-.1-.2-.1-.1q0 0 0 0t0 0l-.2-.1-.1-.4-.2-.2-.1-.1-.1-.1q0 0 0 0t0 0l-.1-.2q0 0 0 0t0 0l-.1-.1q0 0 0 0t0 0 0 0l-.3-.2v-.2h-.1q0 0 0 0t0 0q0-.2-.4-.5l.8-.1 1.7-.1h1l2-.1 3-.1h1.7l1-.2h1.2l1.4-.2h2.1q1 0 1.8-.2l1.9-.3H720l-2.5-.1H714.8l-1.8.2q-.5.6 7.8 3.6l-1.7-.2-2.7-.5-2-.3-1.6-.1q0 .2 1.1.5l2.4.8 2 .7q.9.3 1.5.9-.1.1-1-.1l-1.9-.5-4-1.4q-.1.2 1.6 1l2.8 1.3 1.6.9 1.2.7q.7.3 1 .8-.2.4-2.3-.4l-3.3-1.3-2.6-1.1 2.2.9 4.8 2.3q-.2.1-1.7-.9l-3.4-2-3.1-1.7-2.4-1.3 1 .3 1.7.8 1.2.5h.7l.2-.2M733.2 542V542.3q0 0 0 0t0 0V542.7q0 0 0 0M732.8 542.6h-.5l-.4-.4q-.3-.5-.7-.8l-.5-.5-.3-.2q0-.2-.2-.3v-.2l-.3-.2-.3-.3-.4-.6-.4-.4-.2-.3q0 0 0 0l-.4-.4-.5-.5-.4-.2q-.2 0-.5-.3l-.4-.5-.3-.3-.3-.3-.4-.3-.3-.3-.4-.4-.2-.1-.1-.1-.2-.1q0 0 0 0l-.2-.1-.6-.5-.8-.7-.5-.5-.3-.5-.3-.3-.2-.2q0 0 0 0t0 0h-.1l-.2-.2-.2-.2h-.1q0 0 0 0t0 0l-.1-.2-.2-.2q-.2 0-.4-.3l-.6-.6-.4-.4-.3-.3-.2-.2-.2-.2q0 0 0 0l-.2-.2q0 0 0 0l-.4-.4-.8-1-.5-.7-.4-.4-.2-.3-.3-.3-.4-.4-.3-.3-.3-.2v-.2h-.2v-.2h-.1l-.3-.3-.5-.4-.4-.4-.1-.1q0 0 0 0h-.1l-.3-.3-.2-.3-.2-.2v-.1h-.1v-.1l-.5-.6-1.3-1.1q0 0 0 0M712.5 514.3q0 0 0 0h-.2l-1 .1h-1-.2q0 0 0 0t0 0 0 0 0 0 0 0l-.3-.1h-.3l-.3-.1h-.1H707.9h-.2q0 0 0 0l-.3.1h-.2q0 0 0 0t0 0 0 0 0 0 0 0h-.1H706.3q0 0 0 0-.1 0 0 0h-.3l-.4.1h-.2q0 0 0 0t0 0h-.2v.2l.2.1.1.1q0 0 0 0v.1h.1l.2-.1M741.3 515.1h.4l1 .1h1.3l.6-.2 1-.1h1l.7.1h.8l1-.1h4.6l1 .2h1.4l1.6-.2h1.7q1.2-.2 3.9-.2h-.8l-1.2-.1h-2.2l-1.8-.1h-1l-.7-.1h-9l-.3-.1-.3-.1h-8.3l-.3-.1h-.2-.2q0 0 0 0h-.1H736l-.7.2H734h-.1q0 0 0 0h-.1q0 0 0 0t0 0h-.3l.2.2h.1l.3.1"/>
    <path fill="none" stroke-linecap="round" stroke-linejoin="round" stroke-width="4" d="M763.9 514.5q0 0 0 0h.2l.7-.3.8-.2H769.5q.7 0 1.3-.2h1.2l1 .2h1.4l.8.1h8.6l.7-.1h4.4l.6.1H793.7l1.3-.1h1.7l.7-.2h4.1l.4-.1h3l1.2.2H809.3q0 0 0 0h.7l1.3-.1h1l.1-.1h.5l.8-.1h4.5l.2.1h1.5l.1.1q0 0 0 0h.3l.7.2.9.1 1.5-.2v.2l-.2.1"/>
    <path fill="none" stroke-linecap="round" stroke-linejoin="round" stroke-width="4" d="M821.2 513.9q0 0 0 0l.1-.1q0 0 0 0l.4-.1.3-.1.5-.1q0 0 0 0t0 0v-.2q0 0 0 0H822.8h.7q.8 0 1.7.3.9.1 1.3.3l1 .3 2 .3 2.4.1H835.5q0 0 0 0l-.6.2h-3.6l-1.2-.1h.5q.6-.2 2.8 0h3.5l2 .1 2.8.1h-1.2l-3.1-.2-3-.2H833l-4-.3.4-.1 1.3-.1H834.2l1.5.1 1.1.2-1-.1-2.8-.2q-2 0-4-.5h.2q.5-.1 5.3.5h-2.2q-2-.2-5.1-.2h0q0-.2 1.9-.2h0l-.8.1q-.8 0-1.8-.3h1.7q1.6.2 3.5.1h2.8l1.7.1q.8 0 1.3.2l1 .1 2 .2H839l-2.3-.2-1.3-.1-1.1-.2q.1-.1 2.6.1l7.5.6h-.2q0 0 0 0h-.2l-1.6-.2q-1.5 0-2.5-.2l-1.6-.3h0l2.4.1 5 .3h0q-.1-.2-.5-.2l-5.8-1 1.4.1 2.5.2 2.4.1-2.1-.2h4.1q1.2 0 2.5.3h-2.2l1.6.2q1.5 0 3 .3h0l-4-.1 3.6.1q0 0 0 0l-.1.1"/>
    <path fill="none" stroke-linecap="round" stroke-linejoin="round" stroke-width="4" d="M872.5 515.4v-.3l1.4-.2q-.2.2-2.3.1l-3.2-.1-1.8-.2h-2.5 9.8l-1.4.1h-5.7l-3.3-.1-4.9.3 2-.3q2 0 7.7-.6l-1.9.1-10.3.3 1.2-.2 3.2-.3 2.9-.2H864.6q-.6.2-2 .2h-7.3l1-.2 2.4-.2 3-.2H858l-2.3-.2h-1.6q-.3-.1 2.8-.3l-4.6.5h-1.7l-.1-.1q0 0 0 0t0 0l.5-.1 1-.2h4.5l2 .2H863.6l-2.5-.1q.3-.2 1.6 0h11.1l1 .2 1.2.1 1.5.1 1.1.1H879.5l.3-.1h4.5l2.3.2 1.5.2h1.7q1-.2 3.6.3 0 0 0 0l-1.2-.1-2.4-.2-2-.2-1.5-.2h-3.9l-1.2-.1-1-.1h-.4l-1-.2-1.5-.1h-2-.5-.6-.2l1-.2h6.6l.6.2h1.4q0 0 0 0h.5l.8.1H890.7l.2.1h4l.1.1h.4l.2.1h.7l1 .1h.8l.7-.2h2l.6.2.3.1v.1M895.8 512.6h-.1l.7-.2q.7-.1 1.5.1h1.1l.5.2h1.7l.4-.1h.5l1 .2h6.1l.6.1h1l1.1.1.7.1h1.6l.5.1h.8q.3-.1.8 0l.6.1h4.6l.3.1h3l.6-.1h.8l.8.1 1.2.1H932.4q0 0 0 0h1.8q0 0 0 0h.1q0 0 0 0h2q0 0 0 0h.3q0 0 0 0v.2M937.3 513.1h1.1l.4.1h.5q0 0 0 0H942.2l1.4.1h1l.6.1h.7l.7.1H955.7l.2-.1H961.1l.9.1h1.4q0 0 0 0h4.3l.4-.1h.4q.2-.1.1 0l.8-.1h2.4l.9.2h3.6l.3.1h6.4l.8.1.9.2h.6l.7.1 2.3.1v.1l.1.1M983.5 513l-.1.1h-.1q0 0 0 0 .1-.1 0-.1h.4l.2-.1h1.4q.6 0 1 .2l1.2.1H991.4l.8-.1h.7q0 0 0 0t0 0h.7l.5-.1h.3l.2-.1q0 0 0 0H997.3q0 0 0 0h1.4l.8-.1h5l.4-.1h.6q0-.1.4 0h6.2q0 0 0 0t0 0 0 0h1q0 0 0 0t0 0 0 0 0 0 0 0h.1q0 0 0 0h.4q.1 0 0 0h2.4q0 0 0 0t0 0h.1q0 0 0 0l-.3.1M1013 514.4l-.1.2q.1 0 0 0l.3-.2q0 0 0 0l.2-.1.2-.2h.1l.2-.1q.1 0 0 0 0 0 0 0l.1-.1-.3.1-.7.4q0 0 0 0h.4q0 0 0 0t0 0l-.3.4-.2.2v.1l-.4.5-.5.6-.4.4-.4.4-.5.5-.7.7-.6.6-.3.4-.2.1-.2.2-.1.2-.2.2-.6.6-.7.7-.4.5-.4.3-.5.5-.3.3-.2.2-.2.2-.3.3-.2.3-.1.1q0 0 0 0t0 0l-.1.1-.2.2-.1.1-.1.2-.1.1q0 0 0 0v.1l-.5.5-.8.7-.6.7-.3.3-.2.2-.2.2q0 0 0 0l-.2.3-.3.2-.2.3-.3.2-.1.2-.2.2-.4.3-.3.4h-.1l-.3.3-.5.6-.4.5-.2.3-.2.1v.2h-.1l-.5.5-.7.7-.4.4-.2.2-.3.4-.6.5-.7.5-.4.4-.5.6-.9.8-.6.5-.4.3-.2.2-.1.2-.2.1-.6.5-.5.5q0 .2-.5.6l-.7.7-.3.3-.1.1q0 0 0 0t0 0h-.1l-.2.2q0 0 0 0t0 0 0 0l-.3.2-.3.4-.2.2v.2h-.2v.2h-.2q0 0 0 0t0 0"/>
    <path fill="none" stroke-linecap="round" stroke-linejoin="round" d="M1013.6 573.4l.6-.1-1.8.1h.4l1.4-.1h-.2l-2 .1.4.1h1.4l.3.1H1014.4q0 0 0 0l.1.1-2.2.2 2.2.1q-.1-.1-.1 0h-1.2l-.7.2q.2-.1.2 0 0 0 0 0t0 0l.1-.1q0 0 0 0-.1-.1.6-.1h2.2l.5-.2h.4l.1-.1h.8q0 0 0 0t0 0 0 0H1018.6q0 0 0 0t0 0 0 0l.2.1q0 0 0 0t0 0h.1q0 0 0 0t0 0l.2.1h-.4-1.2l-2.3.1h3.6l-1.3-.2-2.6-.4 3.8.2-4-.7q0-.2 3.7.3l-.3-.1-1-.3-2-.6 2.3.3-1.6-.6q0-.2 1.4 0l-.4-.2q-.4 0-1-.6v.2l.8.6h-.8l-1.2.1-1.6.5h1l-1.6.4h0l1.4.2h-.3l-.4.2M1017.7 511.4q-.1-.1 0 0l-.1-.1h-.2l-.6.2 1.3-.5q0 0 0 0l-.6.2h0l1.2-.2h-.1l-.8.2q0 0 0 0h.7q0 0 0 0l-.9.6h.1q0 0 0 0v.1q.1 0 0 0v.2M704.2 514.6v.1h0l-1-.3v-.1h-.2q0 0 0 0h-.1q0 0 0 0h-.2q-.3-.1-.2 0v-.1q0 0 0 0h.2v-.1M703 513.5h0q0 0 0 0t0 0v.2q.1.1.1 0 0 0 0 0h.1l1.3.4q0 0 0 0h-.8l-1.4-.4.8.2h-.4q0 0 0 0h.5l.2-.1q0 0 0 0h.2l-1.5-.2h1.5l-1-.4q0 0 0 0l.6.2h.9M711 576v.1q0 0 0 0t0 0 0 0 0 0 0 0h-.5q0 0 0 0l-.3.1-.7.2-1.3.1q0 0 0 0-.2-.1 3.3-.5-.3.2-2.4.6h2l-2.2.6h0q0-.3 2.3-.3l-.9.2-1.3.3-1-.1q0-.2 1.7-.1l-3 .2q0-.1 0 0h-.2q0 0 0 0h-.2l-.2-.1q0 0 0 0l-.5-.2 1.3-1.2q0 0 0 0h-.1l-1.2.4q0 .2 1.7-1.3h0l-1 .3 1.3-1.4q0 0 0 0l-1.5.9q.1.1 1.6-1.6 0-.2-1 1.2l.6-.5-.3.2-.7.8-.4.6-.6.6 1-.9-.7.5-1.4 1.4q0 0 0 0l.6-.2.7-.4.5-.5h-.2l-.5.3-.2.3q-.1.1 0 .2.2-.3 2-1-.1.2 0 .1l-1.5.8 2.3-.6-1.4.7 1.3-.5-1.3.2q.2.1.2 0h1.7v.1h-.2l-.3-.1v-.1"/>
  </g>
</svg>
