<?xml version="1.0" encoding="UTF-8" standalone="yes"?>
<svg xmlns="http://www.w3.org/2000/svg" xmlns:xlink="http://www.w3.org/1999/xlink" width="327.955261pt" height="75.700516pt" version="1.1" viewBox="700.093933 442.047272 327.955261 75.700531">
  <g id="Pen" opacity="1.000">
    <path id="STROKE_72f1094e-1cd2-43a1-8169-2ecfa112b24b" opacity="1.000" fill="none" stroke="#50514f" stroke-width="1.000" stroke-opacity="1.000" stroke-linecap="round" stroke-linejoin="round" d="M 1023.835 510.519 Q 1022.749 510.608 1021.910 510.658 Q 1021.071 510.708 1018.622 510.760 Q 1016.172 510.813 1012.252 510.877 Q 1008.332 510.941 1006.131 510.988 Q 1003.930 511.035 1001.753 511.068 Q 999.576 511.102 995.296 511.243 Q 991.017 511.384 989.691 511.415 Q 988.366 511.447 984.501 511.584 Q 980.637 511.721 976.503 511.841 Q 972.370 511.961 970.233 512.006 Q 968.097 512.051 966.577 512.087 Q 965.058 512.123 960.936 512.221 Q 956.815 512.319 952.926 512.396 Q 949.037 512.473 944.895 512.511 Q 940.753 512.549 936.019 512.506 Q 931.285 512.464 928.234 512.425 Q 925.183 512.387 922.022 512.363 Q 918.862 512.338 914.644 512.256 Q 910.426 512.175 906.255 512.115 Q 902.084 512.056 901.351 512.051 Q 900.618 512.046 894.140 511.951 Q 887.662 511.856 884.921 511.791 Q 882.180 511.725 880.541 511.701 Q 878.902 511.676 876.159 511.619 Q 873.416 511.562 870.939 511.531 Q 868.462 511.500 864.303 511.424 Q 860.145 511.348 853.439 511.283 Q 846.733 511.218 842.244 511.220 Q 837.756 511.223 836.443 511.234 Q 835.130 511.245 829.175 511.347 Q 823.220 511.450 817.781 511.547 Q 812.342 511.644 805.528 511.793 Q 798.714 511.942 798.189 511.960 Q 797.663 511.977 792.804 512.077 Q 787.944 512.177 780.928 512.324 Q 773.911 512.472 769.786 512.560 Q 765.660 512.649 756.633 512.796 Q 747.607 512.943 743.218 513.038 Q 738.829 513.133 733.441 513.220 Q 728.053 513.307 706.842 513.533 "></path>
    <path id="STROKE_5ce04a50-3549-46af-8949-c88032e068af" opacity="1.000" fill="none" stroke="#50514f" stroke-width="1.000" stroke-opacity="1.000" stroke-linecap="round" stroke-linejoin="round" d="M 1023.761 446.262 Q 1023.270 446.309 1022.307 446.360 Q 1021.344 446.412 1019.799 446.443 Q 1018.254 446.473 1017.698 446.468 Q 1017.143 446.462 1012.735 446.608 Q 1008.327 446.754 1005.752 446.823 Q 1003.177 446.892 999.917 446.916 Q 996.657 446.939 992.367 447.018 Q 988.077 447.096 987.083 447.090 Q 986.090 447.084 981.828 447.134 Q 977.567 447.184 974.491 447.236 Q 971.416 447.288 967.951 447.285 Q 964.486 447.282 962.231 447.263 Q 959.977 447.244 955.050 447.250 Q 950.124 447.255 938.946 447.227 Q 927.769 447.198 923.662 447.141 Q 919.555 447.084 915.013 447.043 Q 910.470 447.003 908.793 446.979 Q 907.117 446.956 902.362 446.888 Q 897.608 446.819 893.852 446.792 Q 890.097 446.765 887.088 446.747 Q 884.079 446.728 878.488 446.742 Q 872.896 446.756 862.981 446.900 Q 853.066 447.043 849.885 447.099 Q 846.703 447.154 842.332 447.224 Q 837.961 447.294 832.578 447.400 Q 827.196 447.505 818.601 447.694 Q 810.006 447.882 807.317 447.927 Q 804.628 447.972 798.552 448.082 Q 792.476 448.193 788.744 448.203 Q 785.011 448.214 782.168 448.226 Q 779.325 448.237 775.155 448.302 Q 770.985 448.367 768.995 448.391 Q 767.006 448.416 762.154 448.430 Q 757.302 448.444 754.192 448.443 Q 751.081 448.443 749.602 448.436 Q 748.122 448.430 743.686 448.447 Q 739.251 448.464 736.509 448.490 Q 733.768 448.517 730.710 448.534 Q 727.652 448.551 722.639 448.548 Q 717.626 448.545 704.309 448.565 "></path>
    <path id="STROKE_c01a82e1-6731-4ce8-abd0-d33ff9d5ba57" opacity="1.000" fill="none" stroke="#50514f" stroke-width="1.000" stroke-opacity="1.000" stroke-linecap="round" stroke-linejoin="round" d="M 1023.761 446.262 L 1022.999 447.003 Q 1022.600 447.476 1020.919 449.251 Q 1019.238 451.026 1017.985 452.313 Q 1016.731 453.599 1015.900 454.430 Q 1015.069 455.261 1013.026 457.359 Q 1010.983 459.457 1008.839 461.667 Q 1006.696 463.878 1005.020 465.627 Q 1003.344 467.376 1001.554 469.214 Q 999.763 471.052 998.027 472.838 Q 996.291 474.625 995.502 475.426 Q 994.713 476.228 993.716 477.252 L 991.538 479.338 "></path>
    <path id="STROKE_5f5340c2-4640-4ee1-b9fe-d4872281bc03" opacity="1.000" fill="none" stroke="#50514f" stroke-width="1.000" stroke-opacity="1.000" stroke-linecap="round" stroke-linejoin="round" d="M 1023.835 510.519 Q 1022.570 509.097 1021.414 507.872 Q 1020.258 506.647 1019.338 505.674 Q 1018.417 504.701 1016.547 502.767 Q 1014.677 500.834 1013.749 499.895 Q 1012.821 498.957 1011.590 497.705 Q 1010.359 496.454 1009.615 495.713 Q 1008.871 494.973 1007.724 493.879 Q 1006.577 492.786 1005.132 491.380 Q 1003.687 489.973 1002.071 488.493 Q 1000.455 487.013 999.655 486.310 Q 998.855 485.606 997.794 484.667 Q 996.734 483.729 994.211 481.582 L 991.538 479.338 "></path>
    <path id="STROKE_92ac1b60-1e7f-4b59-8271-8b7825f3c9c3" opacity="1.000" fill="none" stroke="#50514f" stroke-width="1.000" stroke-opacity="1.000" stroke-linecap="round" stroke-linejoin="round" d="M 734.774 479.887 Q 734.493 480.230 732.289 482.688 Q 730.086 485.145 728.868 486.508 Q 727.650 487.872 726.927 488.694 Q 726.205 489.516 725.629 490.163 Q 725.054 490.809 724.031 491.991 Q 723.009 493.172 722.735 493.488 Q 722.462 493.805 718.004 499.275 Q 713.547 504.746 712.581 505.980 Q 711.615 507.214 710.359 508.860 Q 709.103 510.507 707.712 512.349 L 706.842 513.533 "></path>
    <path id="STROKE_f69a721b-970d-4f7e-88fd-6a93da3cee9d" opacity="1.000" fill="none" stroke="#50514f" stroke-width="1.000" stroke-opacity="1.000" stroke-linecap="round" stroke-linejoin="round" d="M 734.774 479.887 Q 734.659 479.768 730.180 475.536 Q 725.701 471.304 722.422 468.073 Q 719.144 464.842 717.899 463.557 Q 716.653 462.273 714.720 460.235 Q 712.787 458.197 711.892 457.220 Q 710.998 456.244 709.771 454.855 Q 708.545 453.467 707.084 451.828 Q 706.000 450.571 705.847 450.371 L 704.309 448.565 "></path>
  </g>
</svg>
