<svg xmlns="http://www.w3.org/2000/svg" viewBox="1510.6 -1572.6 2161.5 336.6">
    <g fill="#767b7d" stroke="#767b7d" stroke-linecap="round" stroke-linejoin="round" stroke-width=".5">
        <path d="M1779.2-1550l2.3.1 3 .1h6.6l3 .4 3 .4 3.5.4 5.3.7 3.3.4 1.6.2 5 .3 3.8-.1h2l4-.3 3-.2 4-.2h2.1l5 .2 1.6.1 4.2.1 1 .1h6.6l5.7-.3h2.8l3.5-.3H1879.3l5.4.1h3.4l3.5-.1 3.5-.4 2.9.1 9.8.3 7.3.3 7.8.2 6.8.2 7.9.2 8 .3 7.8.2 6.9.3 8 .4 6.5.6 6.5.5 7.9.6 6.1.5 8.5.6 9.6.3 8 .3 7.5.2 9 .2 7.3.2 6.7.3 9.8.3 8 .4 3.8.1 9 .4 9 .3 8.8.4 7.4.3 6.5.4q0 0 0 0h.1l12.7.4 7.9.3 6.5.1 8.8.1h4l9.6-.1 7-.2 6.7-.1 5.5-.2 5.6-.1 6-.2 6-.1 6.6-.2 6.7-.2 6.9-.2 6-.1h6.3l8.7-.2h19.4l5.8.2 8.5.2 6 .2 6.8.2 6.3.3 8.6.3 6.2.3q1.4.2 7.8.4l11.2-.1 7-.2 8.2-.3 8.2-.2q3.3 0 9.9-.5l9-.7 7.3-.5 5.7-.4q1.8 0 7.8-.6l6-.4 6.5-.3 6.6-.2 7.8-.2 8.2-.2 7.7-.2 7-.2 7-.2 6-.1 5.3-.1h4.6l7.7-.2 5-.1h17.1q1.4.2 7 .3l6 .2h10.2l7 .1h7.8l6.7.2 6.8.2 6 .4 4.9.1H2586.6l7 .2 7.9.2 8 .2 6.9.4 3.2.6q2.6.5 5.5.8l9 .7 6.8.7q5.3.4 11 .6l10.2.3H2686.4l6.6.2 8.7.2h9l6.6.2h9.4l9.4-.1 7-.2h.7l7-.2 5.8-.1H2761.8l1.8.1h5l2.5-.2 2.3-.2h2.6l9.4-.3q3.3 0 9.2-.3l8-.1h7.4l10-.3 7.9-.2 7-.1h13.7q3.3 0 9-.3l8-.2q3.2 0 9.2-.4l3-.3h3.5l1.3-.1h5l2.7-.1h7l2.1.1h2.5l2.9.1h5.2l2 .2h1.8l1.7.1h6l2.7-.2 1.7-.2 2.6-.2 2-.2 2-.2h2.3l2-.1h4.7l2.5.2 4 .1h7.7l2-.1h8.3l1.2.1h.6l2.6.2 1.3.1 1.2.1 2.2.2h5.1l2-.2 2.2-.3 1.6-.2H2989.3l.9.2 2 .2.6.1 2.3.2h4.6l2.8-.1h1.4q0 0 0 0h4.5l2.5-.2 2.7-.2 2.9-.2h16l1.7.2h1.2q1.4.2 3.5.1l2.3-.2 1.5-.2 1.6-.2 1.8-.2.7-.1H3047.4l.4.1.6.1 1 .3 1 .3 1.8.4 2 .4 3.1.4 1.8.1h2.4l1.4.1 1 .1 1.4.1 1.5.1h3.8q5.4 4.8 12.1 12.6 6.8 7.8 11.1 14 4.4 6 7.7 11.7 3.4 5.6 6.5 12.4 3.2 6.8 4.6 10.6 1.4 3.8 4.4 14.3 3 10.6 4.4 16.7 1.4 6 2.2 12.3.9 6.2 1.1 10.4l.4 5.6.3 7.6q.2 6.1 0 12-.4 6-1 10.5t-1.5 8.5q-1 4-2.2 7.4l-2 5.4q-.7 2-2.4 5.1l-2.5 4.6-1.6 3-1.4 3.2-1.2 3-1 2.2-.6 1.5-.3 1-.8 2-.8 1.8.4.3q.3.2.5.6.1.5-25.9.6l-26.5.3-3.9-.3q-3.3-.3-7-.4l-6.7-.2-5.8-.2-3.5-.1-4.8-.1q-4.2 0-7-.2-3 0-5.4-.2h-15.7l-3-.1-8.5.3-13.4.8-9.3.8q-4.2.3-12 1.2-7.6 1-14.8 2.2-7.2 1.2-12.5 2.3-5.3 1-12.7 3.2-7.5 2.1-14.9 4.9l-15.3 6-8.1 3.3-6.4 2.7-11.8 5.1-16.5 7.4-15 6.8-9 4.2-11.5 5.3q-6.6 3-12.8 5.4l-8.9 3.3-9.4 2.8q-6.8 1.9-13.2 3.4-6.4 1.5-10.3 2.2l-10.6 1.8-12.6 1.7-8.6 1q-2.7.1-4.5.4-1.8.2-10.7.4-8.9.2-14 0-5.1 0-16.7-1t-22-2.3l-17.3-2-20.1-2.4q-13.3-1.6-26.9-3l-21.4-2.4q-7.8-1-21.1-3.2-13.4-2.2-19.6-3.6-6.2-1.4-36-9l-43.8-11.2-20-4.9-8.7-2-19.4-4q-16.4-3.3-26.2-5-9.8-1.8-17.4-2.7l-11.2-1.2-5.6-.3-7-.5q-5-.3-15-.5-10.2 0-16.7.4t-14.3 2q-7.7 1.7-12.5 3.1l-7.2 2.4q-2.5.8-7.2 2.7l-5.8 2.5-6.3 2.8q-5.4 2.3-12.5 5.6l-10.8 5-6.8 3-4.4 1.8-4.6 1.9q-3.2 1.3-20.3 6.5t-23.9 6.2q-6.7 1-11.2 1.3l-7.5.5q-2.8.2-8.5.3l-7 .2-10.3-.2q-9-.2-21.3-.9t-21.5-1.6l-11.6-1.3q-2.5-.2-11.7-2-9-1.6-23.3-5.2-14.2-3.6-18.5-5-4.3-1.3-14.5-4.8l-18-6.4-11.6-4.2-6.6-2.5-6.2-2.5-9.8-3.8-6.8-2.6-6.4-2.5q-6-2.4-13.1-4.9l-8.2-2.8-8.3-2.5q-7-2.1-16-4.5l-15.3-4-13.3-2.7q-7-1.3-10.8-1.8-3.9-.5-10.5-1-6.7-.4-10.3-.8-3.6-.4-6.3-.9-2.6-.4-7-1.6-4.4-1.2-6.5-2-2-.7-4.7-2.1-2.7-1.4-4-2.3l-1.6-1-3.3-2.7q-3.1-2.6-4.9-4.6-1.7-1.9-2.6-3.2-.9-1.4-2.4-4.5l-2.2-4.7-1.3-3.6q-.7-2.2-2.2-9.5-1.4-7.3-2.4-14.4l-1.5-10.2q-.4-3.1-.7-7.5l-.7-9.1q-.4-4.7-.8-7.4l-1-7.4-1-8.9-1-7.5-.3-4.2-.2-1.6-.5-8q-.4-7.3 0-15.6.3-8.3.7-12.5l.8-7.8.7-5.4q.2-1.8 1.1-6l1.2-5.2 2.1-5.8q1.8-4.8 4-8.5t8.6-10.1"/>
        <path d="M1913.2-1476.4l1-.7q-2-8.5-2-8v9.5M3107.1-1338.2l17-46.7M3107.1-1338.2l-1355.3-28.3"/>
        <path d="M1575.1-1546.6h-2.6l-1.6.1h-3.5l-4.4.2-3.8.2-4.8.3-5 .2-6.7.3H1535.9l-.2 3.2V-1536.3l-.1 5v.3l-.6 2.9-.4 2.5-.2 1.4v.2l.1 3 .1 2.6.3 5.7V-1497.6l-.4 3.6-.2 1.5v.5l.1 4.5V-1469l-.1 5.2-.2 1.2-.3 2.2-.3 2.7v.7l.1 3.9.1 4.8v5.8l-.2 2.5-.1 1.9-.1 4.9v.7l-.1.5.1 3v2.7l.1 3.5v3.2l-.1 4.6-.1 1.2-.1 3.9v1.1l.5 5.8v9.4l-.2 4.5q-.2 5.3-.4 6.8v4.6q.2 4.6.1 5v6.9l.2 3.5v10.7l-.2 5v.7l-.4 2.2-.2 1.6-.1 1.6v2.5l-.1.8v2.4l.1.9v1l.2 1 .5 5.6h0v1.1l.1.3V-1324.3l.1.4v.7l.2.8v1l.2.8v.7l.2 1v.8l.1.6.1.9q.6 4.8.5 6v1.6q0 3.4-.2 5.8v1l5.7-.8 5.5-1 7.2-1.9 7.5-2 7.6-2.3 8-2.4 6.2-2 6.9-2 12.9-3.7 11.2-3.1 7.3-1.7 8.7-2q4-1 14.7-3 10.8-2.2 23.7-4.4 13-2.2 19.9-3.2l21-2.8q14-1.7 27.7-3.1l15.9-1.6 7.1-.6 21.8-1.7 21.9-1.6 12.6-1 10-.8 4.1-.3 2.5-.3 630-34.3q628.8-34.3 634.3-36.8 5.4-2.5 15.3-8 9.8-5.3 15.3-8.9 5.4-3.6 10.5-7.7 5-4 6.1-5.1 1.1-1 5.4-5.8 4.2-4.8 7-8.9 3-4 5.3-8.3 2.5-4.2 5.2-10.8 2.6-6.6 3.4-9.5l.7-3.1.7-5.4q.6-5.1.3-11.8-.2-6.7-1-10.8-.6-4.1-1.5-7-.8-3-1.6-5h-4.9l-2.8-.1-1.5-.1-2-.2-1.9-.3-1.6-.3-1-.2-1.1-.2-1.9-.4-1.3-.2h-.8l-1.9.3-.8.1-.6.1-1.7.4-2 .3h0l-1.3.3-1.5.2-1.5.3-2.4.4h-1.1l-1.8.3h-.6l-3 .3h-4.3l-2.4-.2-1.4-.2h-.4l-2-.3H3110.6l-1-.1-2.4-.1-2.1-.3-1.3-.2-2-.1-2.2-.2-1.4-.2-2.6-.3h-.5l-.9-.2-2.4-.2h-4.2l-1.4.1-2.2.3h-1l-2.1.3h-1l-1.5.1-2.1.1h-1.6l-1.6.2h-1l-2 .2h-4.9l-1.3-.2h-1l-1.5-.1-2.4-.1-1.8-.1-3.2-.4-1.9-.4-1.8-.4-1-.3-1-.3h-.6l-.4-.2h-1.3l-1.8.3-1.6.2-1.5.2-2.3.2h-3.8l-1-.2h-1.6l-.4-.1h-15.6l-2.9.2-2.7.2-2.5.1h-2.5l-2 .1h0q0 0 0 0h-6.6l-2.2.1-2.3-.2-.7-.1-1.9-.2-.9-.1h-.1l-1.5-.1h-1.7l-1.6.2-2.2.3-2 .2h-5l-2.3-.2h-1.2l-1.3-.2q-2 0-2.6-.2H2966.1l-1.1-.1h-9.3l-2 .1h-5.7l-4-.1-2.5-.2h-6.7l-2.4.1-2 .2-1.9.2-2.6.2-1.7.2-2.7.1-1.7.1h-6l-1.9-.1-1.9-.1h-5.2l-2.9-.1h-2.5l-2-.1h-1.6l-2.8-.1h-7.2l-3.2.1h-1.2l-3 .1-3.6.2q-7.2.5-9.3.5l-8 .2q-7 .3-9 .2h-13.9l-6.7.2-8 .2-10 .2h-7.4l-7.9.2q-7.1.3-9.2.2l-9.4.3h-2.4l-2.5.3-2.5.2h-9.2l-1.4-.1H2750.7l-7.5.3-7.1.2q-7.2.2-9.4.1h-9.4l-10.4-.1-5.2-.1q-6.9 0-8.7-.2l-7-.1H2671.1q-7 0-9-.2-7 0-10.1-.2-6.9-.3-11.1-.7l-7-.6-9.9-.9q-3.2-.3-4.4-.6l-3.3-.6-7-.4-7.8-.2-7.9-.2-7.2-.1h-8.8l-9.4-.1H2551.6l-6.4-.5-6.7-.2-6.9-.1h-14.4q-6.9 0-10.3-.2l-5.7-.2-7.2-.2-5.3-.2-6.9.2h-9.9l-7.7.2H2454.3l-6 .2-7 .2-7 .2-7.7.2-8.2.2-7.8.2-6.9.2-6.6.3-5.5.4-8 .6-5.4.3-7.6.6-9 .7-9.8.5-8.2.3-8.1.2-7.1.2q-6.7.2-11.2 0l-7.8-.2-6.1-.4-8.7-.3-6.2-.3-6.8-.2-6.1-.2q-6.6 0-8.5-.2l-5.8-.1H2226.9l-6.1.2-7 .2-6.6.2-6.7.2-5.8.1-6 .2-5.7.1-5.5.2-6.6.1-7 .2-9.8.1h-12.7l-6.7-.2-7.7-.3-12.7-.4-6.6-.4-7.4-.3-8.8-.4-9-.3-9-.4-3.8-.1-8-.4q-6.6-.1-9.8-.3l-6.8-.3-7.2-.2-9-.2-7.5-.2-8-.3-9.6-.3-8.5-.6-6-.5-8-.6-6.5-.5-6.6-.6-8-.4-6.8-.3-7.8-.3q-6.2 0-8-.2l-7.9-.2-6.8-.2-7.8-.2-7.3-.3q-6 0-9.8-.2l-3-.2-3.4.4h-3.5l-3.3.1h-5.5l-4.4-.2h-6.8l-3 .1-3.5.2-2.8.1q-3.8.4-5.7.3h-7.6q-3.5 0-4.2-.2h-1.6l-5-.3h-2l-4.1.2-3 .2-4 .2h-2l-3.7.2q-3.3 0-5.1-.3l-1.6-.2-3.3-.4-5.3-.7-3.5-.4-3-.4-3-.4h-9.5l-2.4-.2-4.5-.2-4.2-.4-2.4-.3h-.7l-5 .2h-4.9l-1.3.1-3.8.2-5.4.3-3.6.1-2.8.2h-6.8l-4.4.1-3.3.2h-3.2l-2.7.3h-1.4l-.8.1-5 .5-3.8.2h-5.3 0l-3.7.1h-6.9l-3.3-.1h-5l-1.7.1-.7.1-1.8.2-3.4.3-1.4.2-3.8.3-3.6.5-4.9.6-4.8.2h-7.7l-.8.1-3 .2-3.5.1-2.1.2h-8l-3.7-.2-2.5-.2-3.3-.3-2.5-.3h-4.1l-3.5-.1h-13l-3.2-.1-2.4-.1H1582.4q-2.8.2-3.8.1h-2M2923.3-1369.5q-2.5-1.3-4-2.6l-1.6-1.5-5.5-4.2"/>
        <path d="M2959.8-1541h5.2l1 .2H2967.9l2.6.2 1.3.1 1.2.1 2.2.2h5.1l2-.2 2.2-.3 1.6-.2H2989.3l.9.2 2 .2.6.1 2.3.2h4.6l2.8-.1h5.9l2.5-.2 2.7-.2 2.9-.2h16l1.7.1.9.1h.3q1.4.2 3.5.1l2.3-.2 1.5-.2 1.6-.2 1.8-.2.7-.1H3047.4l.4.1.6.1 1 .3 1 .3 1.8.4 2 .4 3.1.4 1.8.1h2.4l1.4.1 1 .1 1.4.1 1.5.1h3.3l2-.2h1l1.7-.1h1.6l2-.2h1.5l1-.1 2.3-.3h.9l2.2-.3 1.4-.1h4.2l2.4.2.9.1.5.1 2.6.3 1.4.2 2.2.2 2 .1 1.3.2 2.1.3h2.3l1.1.2h5.1l2 .2h.5l1.4.3 2.4.2H3126.5l2.9-.3h.6l1.8-.2 1.1-.1 2.4-.4 1.5-.3 1.5-.2 1.3-.3h0l2-.3 1.7-.4h.6l.8-.2 1.9-.3h.8l1.3.2 1.9.4 1.1.2 1 .2 1.6.3 2 .3 1.9.2 1.5.1h9.5q.6 0 2.6-.5l1.7.3 4 .3 1.8.1h2.3l1.2.1H3197.8l2.1.1 1 .1 3.1.2H3211l2 .1.9.1 1.5.1 1.5.1h1.3l1 .1 2.2.2h.3l2.8.2h7l3 .2h2.3l2.3-.2 1.9-.2 2.4-.5h6.1l3.3-.5 2-.4h1.8l1.3.1 1.2.1h1l1.4.1h16l1.5.2 2.9.1h7.3l.8.2 1.8.1h1.9l1 .1h2.7l1.8-.3h.3l1-.2h4l.5.1h5.4l2 .1h.8l.6.1 2 .2 1.4.1h1.9l1.7.1H3327.2l1.2.1h3.5l2.4.1 2.6-.1 1.4-.1h2.6l2 .1h.6l2.6.3.6.1q1.7.3 4 .4l1 .2h15.9l2.7.1 1.3.1 3 .2 1.9.1 3.7.3h2l3.4.2h1.7q.6.2 3 .4l1.8.1 2.6.2h5.7l1.1-.1h1.4l1.3-.2h18.2l2.4-.1 2-.1 2.1-.1v.2l-.5 8.7-.4 6.4-.5 5.9-.6 8.6-.7 6.8-.9 10.8-.7 9.3v.1l-.7 4.2-.7 5-.5 2.9q-.8 4.9-1 7.4l-.1.6-.2 2.6-.1 4v.1l-1.4 10.5-.7 5.8-1 9-.5 3.7-1.3 9q-.7 4.4-1 7.4l-1.3 9-1 6.4-1.4 9.6-.4 3.6-.8 6.3-1.2 9.8-1 9.2-1 9.6-.8 6.7-1 9.8-.7 6.4-.9 10-1 8.8q-2.4.8-11.8 2.6-9.3 1.8-14.2 2.4l-9.7.8q-4.9.3-15 .2-10-.2-17.7-1-7.6-.7-15.4-2-7.8-1.2-16.7-3l-14.1-3.2-14.5-3.6-12.4-3.3-7.6-2.1-9.9-2.7-11-2.7-16.2-3.6q-10.8-2.3-23-4.5l-16.4-2.8-10.2-1.5-9.6-1.4-7-1-8.6-1.1q-5-.7-18.4-2l-15.5-1.3-5-.3-6.7-.1-7.7-.1h-15.1l-11.3.4q-7 .2-103.7-202.8"/>
        <path d="M1575.1-1546.6h-2.6l-1.6.1h-3.5l-4.4.2-3.8.2-4.8.3-5 .2-6.7.3H1535.9l-.2 3.2V-1536.3l-.1 5v.3l-.6 2.9-.4 2.5-.2 1.4v.2l.1 3 .1 2.6.3 5.7V-1497.6l-.4 3.6-.2 1.5v.5l.1 4.5V-1469l-.1 5.2-.2 1.2-.3 2.2-.3 2.7v.7l.1 3.9.1 4.8v5.8l-.2 2.5-.1 1.9-.1 4.9v.7l-.1.5.1 3v2.7l.1 3.5v3.2l-.2 4.6v1.4l-.1 3.7v.6l.2 1.4.2 1.6.6 2.5q1835 108.3 1843 104.2 8-4.2 9.2-4.7 1.1-.4 17.9-9l1-9.6.3-3.5 1-9.8.8-6.6 1-9.7 1-9.2 1.2-9.8.8-6.3.4-3.6 1.5-9.6q.4-3.2 1-6.3l1.1-9.1 1-7.3 1.4-9.1.5-3.7 1-9 .7-5.8 1.4-10.5h0v-4q0-1 .3-2.7v-.6l1-7.4.6-2.9.7-5 .7-4.2v-.1l.7-9.3.9-10.8.7-6.8.6-8.6.5-5.9.4-6.4.5-8.7v-.2h-2l-2.1.2H3420.6l-2.5.2h-8.5l-.7-.1h-4.7l-1.3.1-1.4.1h-1q-2.5.2-3 .1h-2.8l-2.6-.2-1.8-.1-3-.3h-1.7l-3.4-.2-2-.1-3.7-.3h-2l-2.9-.3h-1.3l-2.7-.1h-5l-1-.1h-10l-1-.2q-2.2-.1-4-.4h-.5l-2.6-.3h-.6l-2-.2h-4q-2.2.3-2.6.2h-3.9l-2-.1h-1.2l-1.3-.1h-6.8l-1.9-.1-1.4-.1-2-.2h-.6l-.7-.1h-7.5l-.5-.1h-.2l-2.8-.1H3300.6l-1 .2h-.4l-1.8.2q-2.2.2-2.7.1h-1l-2-.1-1.7-.1-.9-.1-1-.1h-6.3l-2.8-.1-1.5-.1h-.9l-2.5-.1h-5 0-9l-1-.1h-1.2l-1.3-.2h-1.7 0-.1l-2 .4q-2.5.4-3.4.4l-1.9.1h-4.1l-2.4.5-1.9.2-2.3.1h-5.3l-1.4-.1h-5.6l-2.8-.2h-.3l-2.1-.2H3216.9l-1.5-.2-1.5-.1h-.9l-2-.2h-7q-2.6 0-3.1-.2h-1l-2-.2h0H3179.2l-1.8-.2-4-.3-1.7-.3-2.6.4-2 .2h-4.7l-2.8-.1-1.5-.1-2-.2-1.9-.3-1.6-.3-1-.2-1.1-.2-1.9-.4-1.3-.2h-.8l-1.9.3-.8.1-.6.1-1.7.4-2 .3h0l-1.3.3-1.5.2-1.5.3-2.4.4h-1.1l-1.8.3h-.6l-3 .3h-4.3l-2.4-.2-1.4-.2h-.4l-2-.3H3110.6l-1-.1-2.4-.1-2.1-.3-1.3-.2-2-.1-2.2-.2-1.4-.2-2.6-.3h-.5l-.9-.2-2.4-.2h-4.2l-1.4.1-2.2.3h-1l-2.1.3h-1l-1.5.1-2.1.1h-1.6l-1.6.2h-1l-2 .2h-4.9l-1.3-.2h-1l-1.5-.1-2.4-.1-1.8-.1-3.2-.4-1.9-.4-1.8-.4-1-.3-1-.3h-.6l-.4-.2h-1.3l-1.8.3-1.6.2-1.5.2-2.3.2h-3.8l-1-.2h-1.6l-.4-.1h-15.6l-2.9.2-2.7.2-2.5.1h-2.5l-2 .1h-6.6l-2.2.1-2.3-.2-.7-.1-1.9-.2-.9-.1h-.1l-1.5-.1h-1.7l-1.6.2-2.2.3-2 .2h-5l-2.3-.2h-1.2l-1.3-.2q-2 0-2.6-.2H2966.1l-1.1-.1h-9.3l-2 .1h-5.7l-4-.1-2.5-.2h-6.7l-2.4.1-2 .2-1.9.2-2.6.2-1.7.2-2.7.1-1.7.1h-6l-1.9-.1-1.9-.1h-5.2l-2.9-.1h-2.5l-2-.1h-1.6l-2.8-.1h-7.2l-3.2.1h-1.2l-3 .1-3.6.2q-7.2.5-9.3.5l-8 .2q-7 .3-9 .2h-13.9l-6.7.2-8 .2-10 .2h-7.4l-7.9.2q-7.1.3-9.2.2l-9.4.3h-2.4l-2.5.3-2.5.2h-9.2l-1.4-.1H2750.7l-7.5.3-7.1.2q-7.2.2-9.4.1h-9.4l-7-.1-8.6-.1q-7 0-8.7-.2l-7-.1h-14.8q-7 0-9.1-.2-7.2 0-10.1-.2-7-.3-11.1-.7l-7-.6q-6.8-.5-10.2-1-3.4-.3-4.1-.5l-3.3-.6-7-.4-7.9-.2-7.8-.2-7.2-.1h-8.8l-9.4-.1h-3.2l-13.4-.1-6.3-.4-6.8-.2-6.9-.1h-7.4l-7-.1-10.3-.1-5.7-.2-7.2-.2-5.3-.2-6.9.2h-9.9l-7.7.2h-9.9l-6 .2-7 .2-7 .2-7.7.2-8.2.2-7.8.2-6.9.2-6.6.4-5.4.3-8 .6-5.5.3-7.6.6-9 .7-9.8.5-8.2.3-8.1.2-7.1.2q-6.7.2-11.2 0l-7.8-.2-6.1-.4-8.7-.3-6.2-.3-6.8-.2-6-.2q-6.7 0-8.6-.2l-5.8-.1H2226.9l-6.1.2-7 .2-6.6.2-6.7.2-5.8.1-6 .2-5.7.1-5.5.2-6.6.1-7 .2-9.8.1h-12.7l-6.7-.2-7.7-.3-12.7-.4-6.6-.4-7.4-.3-8.8-.4-9-.3-9-.4-3.8-.1-8-.4q-6.6-.1-9.8-.3l-6.8-.3-7.2-.2-9-.2-7.5-.2-8-.3-9.6-.3-8.5-.6-6-.5-8-.6-6.5-.5-6.6-.6-8-.4-6.8-.3-7.8-.3q-6.2 0-8-.2l-7.9-.2-6.8-.2-7.8-.2-7.3-.3q-6 0-9.8-.2l-3-.2-3.4.4h-3.5l-3.4.1h-5.4l-4.4-.2h-6.8l-3 .1-3.5.2-2.8.1q-3.8.4-5.7.3h-7.6q-3.5 0-4.2-.2h-1.6l-5-.3h-2l-4.1.2-3 .2-4 .2h-2l-3.7.2q-3.3 0-5.1-.3l-1.6-.2-3.3-.4-5.3-.7-3.5-.4-3-.4-3-.4h-9.5l-2.4-.2-4.5-.2-4.2-.4-2.4-.3h-.7l-5 .2h-4.9l-1.3.1-3.8.2-5.4.3-3.6.1-2.8.2h-6.8l-4.4.1-3.3.2h-3.2l-2.7.3h-1.4l-.8.1-5 .5-3.8.2h-5.3 0l-3.7.1h-6.9l-3.3-.1h-5l-1.7.1-.7.1-1.8.2-3.4.3-1.4.2-3.8.3-3.6.5-4.9.6-4.8.2H1651.2l-.8.1-3 .2-3.5.1-2.1.2h-8l-3.7-.2-2.5-.2-3.3-.3-2.5-.3h-4.1l-3.5-.1h-13l-3.2-.1-2.4-.1H1582.4q-2.8.2-3.8.1h-2"/>
        <path d="M2674.5-1539.6h-.9l-16.6 1.5-17.7 1.8-15.5 1.4-18.4 1.2-24 1.4-20 1-10.6.5-7.6.3h-16.7q-12 0 80.2 134.9 92 135 113.2 129.8l25.6-6 15-3.4 18-4.3 22.8-5.7 25.8-6.3q10.5-2.5 24.3-5.2 13.7-2.8 21.5-4 7.8-1.4 19.8-3.2 12-1.8 21.9-3 9.8-1.2 18.2-2 8.3-1 21.4-1.8l20.2-1.2q7-.3 11.7-.3l14-.2q9.6-.1 29.7.3 20 .5 31.8 1.2 11.6.7 30.5 2.4 18.8 1.7 34 3.5 15.3 1.9 39.8 6 24.6 4 45.3 8.1l30.5 6.2 26.7 5.3 20.2 4 16.2 2.7q12.8 2 33.6 4.7t35.7 4.3q14.8 1.5 24.4 2.3 9.5.8 25.8 1.6 16.3.9 49.8 1.6 33.6.7 42.5.5l14.3-.4q5.3-.1 39.8-2.8 34.4-2.7 54.4-6.3 20-3.6 25.2-4.8l-.1-.5q-.5-2.4-.6-4.2v-.7l-.2-.6v-1.5-1.2l-.2-3.7v-3.5l.2-3.2v-1l-.5-3.3v-1.8-4.9l-.5-3.3v-2.6-3.7l.4-2.6.1-.8V-1319.2l-.1-2.5v-9.4l.1-1.5v-2l.1-1v-6.1-3.6l.1-1.6v-1.1l.1-1v-3.4l.2-.9v-3.5l-.1-1.1-.3-3v-3.8l.2-3.7h0l.1-1.6v-1l-.1-2v-1l-.1-.4q-.4-3.2-.3-5.2v-1.3l.3-3.4v-1.6q-.2-3.2 0-4.4l.2-1.9v-1l.3-1.7v-.6h0l.2-1.8q.1-3.1.3-4.1l.2-1.7v-3.1l-.2-2.1v-1l-.2-2.9h0v-.7l-.3-1.4q-.5-3.3-.5-5v-2.3l.1-1.1v-3.7l.1-1.6.1-.7q0-3.3.2-4.2v-2.4l.2-2v-.6l-.4-2.5-.2-2-.3-3.2v-1h0V-1447.5l-.3-1.3q-.5-3.7-.4-5v-2.3l.2-1.8v-2q-.4-3.6-.2-5.2v-.8l.4-2.6.1-1.1v-2.5-3.7l.1-.4.2-1.6.1-.8.2-1.7v-3l.1-3.7.3-1.8v-2.2l-.2-3.7.2-1.5v-1.2h0v-1.5l-.4-2-.2-2v-1.4l-.1-1-.1-1-.2-3.9.1-.6.1-.6v-.5l.6-4v-.6l.1-.5V-1521.7l.3-4.2v-.6l.2-2.4v-.4l-.9-4v-.7l-.1-1.7-1.6.2-2.8.2-3.4.3-3 .1-3 .1h-2l-2.4.1h-1.7l-3.8.2-3.5.3-3.5.3-4.1.5-3.9.3-2.5.1h-1.4q-2 0-3.4-.2l-2-.2-5.5-.3h-2.6l-2.8-.2h-2.4l-3-.2-2.2-.1-4.5-.3-2.7-.2q-2.6-.1-3.7-.3l-1.8-.1-3-.4-1.2-.1-.8-.1H3559.7q-2.6.2-3.7.1h-4.6l-.5-.1h-6.1l-2.4-.1-1.4-.2-2-.2h-.3l-2.8-.1h-4.5l-1.3.1h-.6l-3 .2h-5.2l-1.4-.1h-3.3l-1.5-.2h-1.7l-2.4-.3h-.6l-.6-.1-2.4-.1h-3.8l-1.7.1-2.6.1h-1.1l-.8.1h-2l-1.2.2h-1.5l-1.7.2h-1.4l-2.4.2h-1.9l-2 .1h-2l-1.5-.1h-1.9l-1.4-.1h-5.3l-1.2-.1h-5.1l-1.4-.1h-2.5l-.6-.1h-16.1l-1.3.2-2 .2h-3l-1.5.1-2.8.1h-.8l-2.7.2h-1l-2.3.2-2.1.1H3420.6l-2.5.2h-8.5l-.7-.1h-4.7l-1.3.1-1.4.1h-1q-2.5.2-3 .1h-2.8l-2.6-.2-1.8-.1-3-.3h-1.7l-3.4-.2-2-.1-3.7-.3h-2l-2.9-.3h-1.3l-2.8-.1h-4.9l-1-.1h-10l-1-.2q-2.2-.1-4-.4h-.5l-2.6-.3h-.6l-2-.2h-4q-2.2.3-2.6.2h-3.9l-2-.1h-1.2l-1.3-.1h-6.8l-1.9-.1-1.4-.1-2-.2h-.6l-.7-.1h-7.5l-.5-.1h-.2l-2.8-.1H3300.6l-1 .2h-.4l-1.8.2q-2.2.2-2.7.1h-1l-2-.1-1.7-.1-.9-.1-1-.1H3282l-3-.1-1.4-.1h-.9l-2.5-.1h-5 0-10.1l-1.1-.2h-1.3l-1.5-.1h-.2 0-.1l-2 .4q-2.5.4-3.4.4l-1.9.1h-4.1l-2.4.5-1.9.2-2.3.1h-5.3l-1.4-.1h-5.6l-2.8-.2h-.3l-2.1-.2H3216.9l-1.5-.2-1.5-.1h-.9l-2-.2h-7q-2.6 0-3.1-.2h-1l-2-.2h0H3179.2l-1.8-.2-4-.3-1.6-.3q-2 .4-2.7.4l-2 .2h-4.7l-2.8-.1-1.5-.1-2-.2-1.9-.3-1.6-.3-1-.2-1.1-.2-1.7-.4-1.3-.2h-1l-1.9.3h-.8l-.6.2-1.7.3-1.6.3h0l-1.6.3-1.6.3-1.5.3-2.4.3-.8.1-1.7.2-1 .1-3 .3h-4.3l-2.4-.2-1.2-.2-.6-.1-1.8-.2h0H3110.6l-1-.2h-2.4l-2.1-.3-1-.1-2.3-.2-2.2-.2-1.4-.2-2.6-.3h-.6l-.8-.2-2.4-.2h-4l-1.6.1-2.2.3h-.7l-2.4.3h-2.5l-2.1.2h-1.3l-2 .2h-1l-2 .1h-.7l-2.6.1-1.5-.1-1.3-.1-1-.1h-1.5l-2.4-.1-1.8-.2-3.2-.3-1.9-.4-1.8-.4-1-.3-1-.3-.6-.1h0-.5l-.5-.1h-.7l-1.8.3-1.7.2-1.4.1-2.3.3h-3.8l-1-.2-1.6-.1h-15.7l-3.2.2-2.7.2-2.5.1h-5.9l-2.8.2h-4.6l-2.3-.2-.7-.1-1.9-.3h-.6l-2-.1h-1.6l-1.3.2-2.5.3-2 .1h-7.3l-1-.2-1.5-.1-2.6-.1-.6-.1h-.8l-1.4-.2h-7.1l-2.2.1-1.8.1h-5.9q-2.9 0-4-.2h-2.6l-2.5-.1h-4.1l-2.4.1-2 .2-1.8.2-2.7.3h-1.7l-2.7.3h-6.1l-1.6-.1h-1.9l-1.8-.1h-4l-1.3-.1h-5.4l-2-.1h-1.6l-2.8-.1h-7.2q-2.9.1-3.2 0h-1.2l-3.7.2h-3l-1.4-.2h-3.2l-3 .3-2 .2-3 .1H2859.8l-2.2-.1-2-.1h-4.7 0-4l-1.4-.2-2.5-.1h-4.6l-3.4.1h-14.3q-2.6.2-3.1.1h-1.5l-3.5.1-2.1.2h-.8l-1.7.2-2.2.2h-3l-1.7.2h-5.4l-1-.1h-6.1l-2.2.1-2.7.1h-1l-1.6.2-1.3.2h-.3l-2.6.5-1.4.2q-2.5.4-4.3.5l-4 .2h-5.2l-3.9-.1h-1.8l-2.4-.2h-3.3l-1.7.2-3.3.2H2738.6l-4-.1-1.5-.1-3.2-.2-1.5-.1-2.3-.2-3.5-.1-1.4-.1-2.2-.1-3-.2h-1.4l-1.9-.2-3.9-.2-1.8-.1h-3.7l-2.5-.2q-2 0-2.8-.2h-1.3l-.9-.2-2.3-.1H2690.6l-2 .2h-11.9l-1.2-.1"/>
    </g>
    <g stroke="#6e4c44" stroke-linecap="round" stroke-linejoin="round">
        <path fill="none" stroke-width="3" d="M2429.9-1451.1l1.6 1.2 4 3.7 3.1 2.8 1.6 1.5 3.5 3.8q3.3 3.6 5.4 6.4 2.2 2.8 3.6 5 1.5 2.2 2.5 4.2 1 1.9 2.4 5.6 1.5 3.6 2 5.4.5 1.8.8 4 .3 2 .4 4.2v3.6q0 1.3-.3 3.7-.4 2.5-1.1 5.2-.8 2.7-1.6 4.5l-1.4 3-1.5 2.7-1.2 2-1.2 1.7-2.1 2.7-2.4 2.7-2.5 2.7-8 7.5-2.6 2.6M2434.9-1358.7l-2.5-.5-.7-.2-4-1-3.4-1-3.6-1-6.2-1.6-5.9-1.5-11-2.9-12-3-8.8-2.2-10.9-2.5-7.7-1.7-7.9-1.5-9.5-1.8-10.2-1.5-9.4-1.2-5.2-.7-4.2-.5-5.2-.5-5.7-.5-5.5-.5-5.2-.4-5.2-.3-7.8-.5-8-.5-5.8-.3-7.3-.4-11.4-.4-11.6-.5-9.2-.3q-4.5 0-8.9-.2l-7-.2-6.7-.2-7.9-.2H2160l-3.1.1-5.8.2-5.7.3q-2.5 0-4.4.2l-3.7.2-5 .3-4.8.3-4.4.3-6 .4-6.9.5-13 1.2-14 1.3-9.6 1-7.9.8-7.6 1-7 .8-3.3.5-3.5.5-4.2.6-4.3.7-4.2.7-5.5 1-8.4 1.6-6.8 1.4-6.1 1.4-7.2 1.6-5.4 1.3-4.9 1.2-5.7 1.5-4 1-2.7.8q-.4 0-3.5 1M2429.9-1451.1l-3.5-.2-4.9-.3-6.5-.3-7.3-.2-8.5-.2h-7.6l-8.4-.1-10.4-.2-9.1-.1-5.2-.1h-3.8l-5-.1h-6.8q-3.6-.1-6.4 0h-9.7l-11 .3-7 .2-6.8.3-5.9.1-2.8.1-5.7.1-8.6.2-9.6.1-8.3.1h-10.7l-8.4-.1-7-.1-6-.1-14.3-.2h-12.2l-3.7-.1h-18.1l-12.3-.1h-11.6l-7-.1h-8.4l-5-.1-5-.1-7.5-.2-6.7-.3q-3.8 0-5.8-.2l-5.5-.2-8.2-.4-9.7-.5-8.5-.5-7.9-.3-8.5-.4-8.3-.4-8-.4-6.4-.2-9.2-.3-9.4-.2h-13.2l-6.3.1-4.2.2-3.1.1-6.2.3-3.2.2"/>
        <path fill="none" stroke-width="3" d="M1971.3-1365.3l-3.3-1.7-3.7-2-2-1.2-1.5-1-2-1.3-2.9-2.3q-2-1.6-3.4-3l-2.2-2.2-1.6-1.9-1.7-2-2.4-3.7q-1.8-2.8-3.3-5.6l-2.1-4.7-1.3-3.8q-.6-2-1.2-4.9l-.7-4.2-.3-3.6v-3.8q0-1.5.2-2.7l.6-3.4q.5-2.2 1-3.5l.6-2 .7-1.5 1.1-2.4 1.1-1.8 1.3-1.8 2-2.4 1.6-1.6 2-1.7 2.5-1.9 2.4-1.5q1.4-1 3.4-2l3-1.4 1.9-.7 2.2-.8 2.7-.8 2.4-.7 2.8-.7 3.1-.7 2.5-.5 2.5-.4 2.8-.4 3.5-.5"/>
        <path fill="#6e4c44" stroke-width=".5" d="M2429.9-1451.1v.3l2.7 2.4 2.3 2.2 1.4 1.6 1 1.2.6.9 1.1 1.4 1.8 2 1.5 1.5 1.3 1.2 1 .8.4.3 1.6 1.6 2.3 2.5 1.5 2 1 1.4.6 1 .7 1 .9 1.4.6 1 .7 1.1 1 1.8.5 1.2.3.6.2.4.7 1.4 1 2 .4 1.5.3 1.2.2.7.1 1.2.3 1.5.2 1.6v3.4l-.1 1.8-.2 2.1q0 .9-.3 2.2l-.3 1.5-.2 1q0 .7-.6 2.5l-1 2.2q0 .4-.2.7l-.3.6-.3.8-.2 1-.3.7-.1.4-.5 1.3-1 2-1 1.5-.4.9-.3.5-.4.7-.3.4-.8 1.3-.9 1.4v.3l-.7 1.1-1 1.6-.7.9-.7.7-1 .9-2.4 2.3-1.7 1.6-1.2 1.4-1.8 1.6-1.5 1-.8.6-1 .7q-1 .6-1.5.7l-.7.4-.9.4-.7.3-1 .2q-1 .2-1.9 0l-1.3-.1-1.5-.4-2-.5-1.7-.4-1.9-.5-2-.6-1.7-.5-2.1-.7-2.3-.8-1.3-.4q-.5 0-1.2-.3l-2-.5-2.2-.7-1.6-.5-1-.3h-.4l-1-.4-2.4-.6-2.5-.7-1.7-.4-2-.7-2.7-.8-2.4-.6-2-.4-1-.3h-.6l-1.5-.3-2.2-.4-1.6-.4-.9-.3-.8-.3-2.1-.7-2.8-.9-2-.5-1.5-.3-1.3-.3-.6-.1-2-.5-3-.7-1.7-.3-1.1-.2-1.7-.2-1.3-.2-1.7-.2-2.8-.3-3-.3-2.6-.4-1.2-.2-3.7-.7-5-.8-2.1-.3-2.2-.3-1.8-.2-1.6-.4-1.5-.3-1.6-.3-2.4-.5-1.7-.3q-.7 0-1.3-.2l-1.7-.2-2.1-.3-3.3-.4-3.2-.4-1.3-.2-1.1-.2-1.3-.2-1.9-.3-2.3-.3-2.2-.2-1.3-.1-2.3-.2-3.6-.3-2.4-.1-2.2-.2h-1.4l-1.6-.2-2.2-.2h-2l-2.5-.1h-3.3l-4-.2-2.4-.2h-1.7l-2.3-.1h-6.4l-3 .2h-8l-1.9-.1H2239.2l-1.7.2h-4.9l-3.1-.1-2.2-.2-1-.1-2.6-.2-4-.3-1.5-.2-1.6-.1-3.3-.3-3.8-.1-3.5-.2-2.4-.1h-1.8l-1.7-.1h-2.2l-1.8-.1h-.5-3.9l-2.6-.1q-1.3 0-2-.2l-1.5-.1q-.6-.2-3.2-.4l-4.4-.2H2163l-2.3.1h-2.5l-2.2.2-2.9.2-3 .2h-1.7l-2.2-.2-2-.5-.9-.5-.9-1-.7-1.7-1-2.3-.4-.9-.4-.8-1.5-3-1.5-3.2-.6-1.6-.6-1.8-.5-1.5-.4-1-.3-1.5-.5-1.6-.4-1.3-.3-1.3-.2-1.4-.1-1.4-.2-1.2-.6-2.4-.8-4-.5-2.7-.3-1.4-.2-.6-.2-.7-.4-1q-.2-.2-.3-1l-.3-1-.1-.6v-.3l-.2-.5-.3-1-.6-1.7-.5-1.3-.4-1.3-.4-1.7-.6-2-.3-1.3-.3-.8-.5-1-.6-1.1q-.3-.4-.6-.5l-.2-.2q-1-.1-2.5-2.2"/>
        <path fill="#6e4c44" stroke-width=".5" d="M2144.7-1391.3v.1l-.3.3-.8.2-1.6.2-1.8.1-1.9.2h-1.4l-1.7.2-2.9.3h-1.8l-2 .2h-2.8l-1.3.1h-4.5-1l-2.2.2-1.9.2-2.3.2-2.3.3h-1.2l-1.3.1h-1.7l-3.2.4-3.6.5-2 .3-1.2.2-2 .2-2.9.2-1.1.2-1 .1-1 .1-.3.1-1.4.3-2.5.5-1.5.2h-1.4l-3 .1q-2 0-3.4.2l-3.7.4-3.2.5-1.7.2-1.4.2h-1.2l-.8.1-1 .1h-.9l-.6.2-1.4.1-1.8.3q-.6 0-1.6.3l-1.3.2-.9.2-1.3.3-1.3.2-1.2.2-1.1.1-.9.1-1.5.2-1.9.3-1.2.2-.8.2h-.3l-1 .3q-1 .1-2.4.6l-2.7.8-2.3.4-2.2.3-1.6.2-1.7.2-1.5.3h-.6l-1 .2q-1 0-1.5.2l-.8.1-.7.2h-.6l-.6.2h-.8l-.8.2-.7.1-2.7.5-3.6.8-2 .4-1.2.3-.8.2-.9.2-.4.1-.6.1-1.4.3-1.4.3-1.4.3-1.4.3-2 .4-1.4.2-1.2.3-2.2.4-1.7.3-1.6.3-1.6.3q-.5 0-.9.2l-.8.2q-.6 0-1.8.4l-1.8.4-1 .2-.8.1-1 .2-1.2.3-.9.2-.8.3-1 .3-1 .3-1 .2h-3.9l-.4-.1-.6-.1-.7-.2-1.2-.2-.7-.2-1.8-.8-2.2-1.1-.5-.3-.8-.7-1.5-1.3-1.2-1.2-.6-.5-1.3-1-1.4-1.2-.3-.3-.6-.6-.8-.8-.6-.7-.7-.9-1-1-.7-.6-1.3-1.2-1.9-1.7-1-1q-.5-.5-.7-1l-.4-.4-.5-.8-.8-1.3-.5-.8-.3-.6-.6-1.5-.7-1.4-.3-.8-.6-1.5-.4-1-.3-.4-.4-.7-.5-1-.3-.5-.3-.4-.4-.8-.4-1q-.3-.7-.4-1.6l-.4-1.8q0-.9-.2-1.6l-.2-1v-.3l-.1-.3-.3-.8-.2-.7-.4-.8-.6-1.4-.3-1-.1-.7v-.9l-.1-1v-.7-.8-1l.1-1.3.3-.8.2-.8.2-.7.3-1 .5-1.5.3-1 .2-1.2.2-.7.2-.7.6-1.5 1-2.5.7-1.3.2-.5.4-.8.6-1.1.7-1.3.8-1.1.6-.8.5-.6.8-1 .9-.8.9-.9.8-.8.7-.6.4-.4.5-.5.8-1 .7-.7.6-.5 1-.9 1-.6 1-.5.5-.3 1-.5 1.6-.6 1.5-.6 1.8-.8 1.3-.6.9-.3 1-.4 1.3-.5 1.6-.7 2.3-.9 3.1-1q2-.6 2.5-.9l2.4-.4 2.1-.2h2.7l1.7-.2 2.7-.3 3.5-.3 2.5-.2H1997.5l3 .1h4.4l1.8-.2h1l2-.1h3l1.6.1 1 .1h.6l2 .2 3.1.2q1.2 0 2.7.3l2 .2 1 .1 1.4.2h1.3l.4.1h1.6q1.5.1 3.2 0l2.7-.2h1.6l1-.1H2044.3l4-.1 3.2-.2h3.3l1.9.1 5.3.4 5.2.3h1.9l1.6.2 1.3.1 1.7.3q1 0 1.8.2l2.3.4 2.4.5 2.9.2 2.6.2h4.8l3.2.2 2.4.2 1.6.1 1.3.1 1.1.1h4.6l2-.1 2.5-.1h3.2l2.3-.1h4l.9.1h.7l.8.2 1.3.1h4.6l.3-.2"/>
    </g>
    <g stroke="#f3c895" stroke-linecap="round" stroke-linejoin="round">
        <path fill="none" stroke-width="3" d="M1974.2-1378.4l9-4.4 5.8-2.7 4.2-2 6.4-2.7 6.7-2.7 7.2-2.7 10-3.3 7.4-2.2 6.7-1.7 9.3-2 8.8-1.7 4.2-.7 3.5-.6 7-1 5.7-.7 5.6-.6 8.2-.8 8.2-.7 8-.5 8.2-.5 9.3-.4 9.4-.3 9.9-.3 9.8-.2 10.4-.1H2196.3l6 .1 8.2.2 7.9.2 3.7.1 6.6.2 16.6.6 22.2 1.1 19.6 1.4 13.4 1.3 6 .6 10.9 1.3 12.9 1.6 3.5.5 4.4.7 7.2 1 11 2.1q8.1 1.6 12.2 2.7l7.2 1.9 5.2 1.6 6.8 2.4 7.8 3.1 4.2 2 4.3 2.3 6 3.6 5.2 3.3 3.1 2.2q1 .6 2.9 2.2l5.1 3.8"/>
        <path fill="none" stroke-width="3" d="M1974.2-1378.4l5-.5 1.2-.2 4.4-.7 7.7-1.2 4.9-.8 4.6-.6 5.1-.8 4.9-.8 6.1-1 6.4-.9 6.9-1 7.7-1 9.1-1.2 8.3-.9 6-.6 10.5-1 10-.8 11.4-.7 14.7-.9 12.1-.6 9-.5 21.8-.6 22-.5h7.1l11 .2 12.8.4 12.3.4 9.3.4 9 .4 8.8.4 4.5.2 6.7.4 6.5.4 5 .3 7.2.4 10.7.9 10.2.8 8 .7 13.5 1.4 12.4 1.5 6.6.9 3.8.6 6.7 1 10.9 1.8 8.7 1.5 9.3 1.7 7.6 1.5 6.3 1.2 5.8 1.1 7.5 1.4 10 2 7.4 1.3 6.8 1.2"/>
        <path fill="#f3c895" stroke-width=".5" d="M1974.2-1378.4l4.5-2.1 5.5-2.7 2.6-1.3 1.6-.8 2-1 2-.8 1.6-.6 2-.8 2.4-1 2.6-1.1 1.8-.8 1-.4 3-1.2 5-2 5-1.6 3-.9 3.5-1 4.6-1.2 3.4-.8 3-.8 2-.6 2-.4 3.1-.6 3.5-.6 2.5-.5 4.7-.8 5.6-.9 3-.5 2.5-.3 3-.5 3.1-.4 1.7-.2 1.9-.3 2.4-.4 2.2-.3 2.4-.3 1.7-.3 3-.4q2.2-.4 3.7-.5l2.7-.3 4.3-.5 5.2-.6 2.5-.2 1.5-.1 2.9-.3 15.7-.5 15.1-.4h12.7l5.2.1h2.3l3.6-.1h28.5l3.3.1H2219l5.9.4 8.8.3 11 .5 9.4.6 4.3.3h1.5l3.1.2 5.3.3q2.8 0 3.9.2h2.4q1.3.2 4.2.3l4.3.3 4.8.6.9.2h1l1 .1 3.8.2h1.3l1 .1h1l1.3.2h1.5l1.6.2 2.5.3 2.3.3 2.6.3 4 .5 3.4.4 3 .4 3.2.3 3.4.5 3.1.4 2.8.5 3.2.6 2.5.5 1.8.4 3.3.6 2.5.6 3.8.8 6.2 1.3 3.2.6 1.3.2 2 .4 2.6.5 3.7.8 4.1.8 2.4.4 3.1.7 2.8.6 2.4.7 3.9 1.2 3.3 1.2 2 .8 2 1 2.6 1.2 1.6.7 1.4.6 2.8 1.2 3.3 1.4 3.2 1.4 2.9 1.5 2 1.4 1.4 1.1 1.1 1.1 2 2.6.5 1q0 1-.3 1.4l-.2.3q-2.2.8-3.2 1-1 0-3.7-.4l-3.9-.7-1-.2-2.5-.6-3.4-1-1.7-.3-2.2-.5-3.3-.7-4.4-1-5.3-1-3.8-.9-3.6-.7-3.9-.8-3.4-.7-3.7-.8-3.2-.7-2.1-.5-2.2-.5-3.6-.8-4-.7-3.3-.6-1.8-.3-2.3-.5-6-1.3-1.8-.3-3.5-.6-4-.6-2.6-.2-2.7-.3-3-.3-2.4-.2-2.9-.2q-1.7 0-3.2-.2-1.5 0-2.7-.2h-1.2l-6.5-.4-10.8-.6-6.7-.5-4.8-.4-4.4-.3-4-.4-3.4-.3-2.8-.2-3.6-.2-4.5-.2-4.2-.3-6.8-.4-8.7-.5-7.2-.4-5.2-.2-4.2-.2H2204l-4.7-.1h-2.8l-3-.1-4.9-.1-4.9-.2-3-.1h-18.5l-2.1-.1h-1.4l-5.2-.1h-12.2l-8.3.1h-2.2l-6.6.1-6.7.2-3.4.1-4.7.3-3.3.2-2.5.2-3.9.3-4.2.4q-1.8 0-3.5.2l-3 .2-3 .3-3.6.2q-2 0-3.7.2l-3.7.3-3.3.2-2 .2h-1.8l-2.5.2-3.2.2-3 .3-3.5.4-3.7.5-1.5.2-2 .3-3.4.5-2.5.4-2.6.4-1.7.2-3.6.5q-3.6.5-5.8 1l-3.2.5-2 .4-3 .6-4.1.7-4.5.7-4.1.6-2.8.4-2.8.6-2.2.4-1.7.4-3 .8-2.8.9-1.4.5-2.6 2.2"/>
        <path fill="#f3c895" stroke-width=".5" d="M1988.7-1378.5l-1.7-1.7q-1.5-1.4-2.5-2l-1.3-1q-.3-.2-1-.2h-1.9l-.7.3-1.7.6-1.3.5-.8.4-.7.4-2.5 1.9-.4.8-.1 1.3v1.2l.1.5q.1.4.3.5l.3.4.3.2.5.1.7.2h2l1.7-.1q.7-.1 1-.3l2.2-.4 1.8-.4 1.2-.2.5-.1.7-.2 1.4-.2 1.7-.4 1.6-.5 2-.5 1.8-.4 1.9-.5 2.3-.6 2-.5 1-.3 1-.2 2-.5 2.3-.4 1.7-.3 3.2-.4 3.5-.6 1.2-.2 2.1-.3 3.1-.4 1.9-.2 1.3-.2 2-.3 2-.3.6-.1h1.9M2426.4-1369.8l-5-4.9q.5 0 1.7.6l1 1 .4.3.5.5.8.7 1.3 1.2.6.6.6.8q.6.7.8 1.2l.1.6v1.2l-.7.7-.5.4-1 .4-.9.2-1.2.2q-.8.1-1.6 0l-2-.2-1.5-.3-.7-.2-.9-.3-1.8-.7-1.6-.8-1.1-.4-1-.5-.8-.4-2.3-.7-2.7-.9-1.6-.4-2.5-.6-2.4-.5-2.2-.5-2.3-.5-1.4-.3-1.9-.5-2.4-.6-1.6-.4-1.4-.3-1.4-.4-.8-.2-1.8-.6-3-.8-2.2-.6-2-.6-3.6-.9-4.2-1-3-.7-2.9-.6-3-.7-2-.4-2.5-.5-3.1-.5-1.5-.2-2.3-.4-3-.4-2-.1-1.3-.2-1.1-.1"/>
        <path fill="#f3c895" stroke-width=".5" d="M2395.1-1372.2l.4.1.5.1 1 .3.9.3.9.3 1.4.4 1.4.4.9.3 1 .3 1.3.4 1.5.5 1.7.6 1.4.4 1.3.4 1.5.5 1.4.4 1.4.4 1 .2h.4l.6.1h1.9l.7-.1.4-.1.3-.1.3-.2.5-.2.5-.4.4-.3.3-.3q.2 0 .6-.5"/>
        <path fill="#f3c895" stroke-width=".5" d="M2424-1373.2l.9.4.6.2.6.3.7.3.5.3.3.2.5.2.6.5.6.4.6.5.2.2.3.3.3.3.2.3.2.3.1.2.1.3.1.3v.4l.1.3v.3l-.1.3-.2.5-.3.4-.3.2q-.1.2-.4.3l-.4.3-.5.1-.7.3-.8.1-1 .1h-.7l-.6.1h-1.9l-.5-.1h-.5l-.8-.1h-.5-.5"/>
    </g>
</svg>
