<svg xmlns="http://www.w3.org/2000/svg" viewBox="90.71 989.2 260.29 171.84">
    <g stroke-linecap="round" stroke-linejoin="round" stroke-width=".5">
        <path fill="#8E8E8E" stroke="#8E8E8E" d="M348.23 1006.91l-1.25.6q-.76.39-2.09.95-1.16.54-1.97.86-.82.31-1.65.68-.83.37-1.25.54-.42.17-1.64.62l-1.99.75q-.77.29-1.55.62-.79.33-2.22.86l-2.5.92-2.41.9q-1.35.51-4.1 1.44l-4.16 1.4q-1.39.48-4.1 1.31-2.7.83-4.55 1.35-1.84.51-2.43.69-.6.18-2.7.72t-6.44 1.56q-4.35 1.02-6.59 1.5-2.23.49-3.48.74t-2.89.53l-4.48.84q-2.84.54-4.69.87l-6.34 1.16q-4.5.83-7.77 1.48-3.26.65-5.86 1.2-2.59.55-4.94 1.11-2.34.57-3.33.83l-2.8.73q-1.8.49-4.15 1.17-2.34.68-3.05.9-.71.2-3.86 1.23t-4.6 1.54q-1.46.51-3.84 1.44-2.37.93-4.14 1.66-1.76.74-4 1.8l-2.68 1.28q-.43.2-2.14 1.13-1.7.93-4.24 2.58-2.54 1.64-4.06 2.74-1.51 1.11-2.87 2.27t-2.32 2.11l-1.59 1.6q-.63.67-1.22 1.37-.58.7-1.54 2.05-.96 1.34-1.26 1.8-.3.47-1.13 2-.83 1.52-1.3 2.6-.47 1.08-.95 2.5t-.73 2.5q-.25 1.07-.38 1.83t-.26 2.72q-.13 1.96-.1 2.82.03.86.28 2.8.25 1.93.7 3.7.47 1.76 1.2 3.66.73 1.9 1.88 4.07 1.14 2.18 1.49 2.75.35.58 1.39 2.06 1.04 1.49 2.16 2.86 1.12 1.38 2.1 2.46.99 1.08 1.88 2 .9.9 2.96 2.88 2.07 1.98 3.7 3.42 1.63 1.44 2.58 2.2l2.07 1.64q1.12.89 2.25 1.72 1.12.84 2.6 1.9l1.8 1.29q.3.22 5.07 3.38 4.76 3.15 5.73 3.75.96.6 5.77 3.37 4.8 2.78 8.14 4.48 3.33 1.71 5.47 2.72 2.13 1.01 8.22 3.55 6.08 2.54 7.08 2.9l2.79.98 2.25.8 3.2 1.02q2.76.86 4.04 1.21l3.46.97 2.86.8q.66.18 3.25.75 2.58.57 5.58 1.15t4.83.86l3.1.46 3.05.43q1.78.25 4.66.56 2.87.32 4.55.48l2.68.27q1 .1 2.7.22 1.71.12 2.72.16 1.02.04 1.77.09l1.57.1 1.64.13q.83.07 3.04.19l6.54.35q1.25 0 3.38.13"/>
        <path fill="#F4F0EB" stroke="#F4F0EB" d="M305.18 1063.37q-.06.5-.12.63l-.13.3-.25.51-.36.76q-.19.4-.4 1.04l-.34.93-.21.58q-.1.3-.13.34l-.27 1.22q-.27 1.18-.37 1.8-.11.61-.16 1.1-.05.5-.09 1.8-.04 1.3-.02 2.07.02.78.07 1.3l.1 1.18q.05.65.13 1.25l.17 1.41.13 1.13.05.76v.84q-.03.42-.16.82-.13.41-.34.3l-.27-.14-.52-.32q-.45-.28-1.38-.81-.94-.54-1.2-.66-.27-.13-.5-.22-.24-.1-.63-.22l-.54-.18-.63-.25q-.49-.2-.69-.26l-1.35-.44q-1.16-.37-1.55-.45l-.6-.14-.44-.12-.29-.08-.4-.07-.93-.15-.98-.18-.7-.13-1.12-.22-1.29-.26-.62-.12q-.13 0-.34-.04l-.6-.1q-.38-.07-.95-.14t-.98-.14l-1.34-.2q-.92-.13-1.5-.3l-.57-.18-.42-.32v-.23q.1-.35.27-.68.16-.33.27-.48.11-.15.33-.4.23-.26.24-.3.01-.03 1.3-1.32 1.28-1.28 1.98-1.9l.95-.83q.26-.23.77-.6l1.11-.8.9-.68q.3-.23.66-.46.36-.24.91-.65l.86-.61.58-.38.45-.29.71-.44.87-.52.37-.2.36-.2.63-.36q.32-.2.79-.45l.57-.28.46-.25.64-.39q.27-.17.92-.49.65-.33.99-.48.33-.16.7-.3l1-.35q.63-.2 1.08-.32.44-.1.84-.16l.65-.1q.25-.05.63-.1l1.12-.03q.17.03.41.04.25.01.4.1.17.07.24.16.03.07.08.03.05-.05-.01.46z"/>
        <path fill="#6e4c44" stroke="#6e4c44" d="M186.18 1031.24q-.83-3.09-1.22-4.6M150.36 992.39q.13-.04.22-.02.03 0 .1 1l.19 2.4.18 2.14.1 1.37q.04.63 0 1.22-.03.58-.35 1.9l-.12.11q-.38.34-.4.4-.04.06-.28.22-.24.15-.7.3l-.5.16-.63.13q-.6.1-1.08.13-.49.03-.93.03l-1.37.02-1.42.04q-.5.02-.76.05l-1.96.1q-1.7.08-2.18.05-.49-.02-.67 0-.18 0-.74-.06-.57-.06-1.59-.3-.39-.14-.57-.27l-.29-.24q-.1-.11-.28-.37-.17-.25-.27-.55l-.15-.44q-.04-.14-.03-.3 0-.16.18-1.13.16-.98.24-1.25l.17-.6.16-.5q.05-.17.25-.56l.26-.5.19-.29q.12-.18.38-.46l.53-.6q.28-.3.56-.56l.37-.32q.09-.07.87-.55.78-.5 1.26-.7.48-.2.99-.33l.53-.13.24-.06.35-.1q.14-.05.57-.14.44-.1.5-.1l1.07-.1q.63-.05 1.62-.1 1-.06 1.47-.06t.62-.02l2.8-.2q.07.04.12.1.05.07.18.04z"/>
        <path fill="#6e4c44" stroke="#6e4c44" d="M199.72 1017.87l-.15-.35q-.02-.04-.27-.25l-.63-.55q-.38-.35-1.42-1.53l-1.5-1.7-1.61-1.88q-1.16-1.35-2.09-2.28-.92-.93-1.33-1.29l-.85-.74-.66-.56-.37-.29-.33-.2-.69-.37q-.51-.27-.99-.45-.47-.17-.78-.22l-.75-.1q-.44-.07-.96-.11-.51-.05-1.21-.06-.7-.02-1.2.01l-1.34.08q-.84.05-1.9.17-1.06.12-1.99.13-.93 0-1.4-.04l-1.9-.17q-1.43-.12-3.22-.21-1.78-.1-2.8-.11l-1.74-.03q-.74-.01-2.59.05-1.85.06-4.38.4-2.54.35-4.15.51-1.6.17-2.36.21l-1.63.12q-.88.07-3.46.35-2.57.27-4.97.56-2.4.29-3.39.43l-2.04.3q-1.05.16-1.71.22-.66.06-1.77.11-1.12.05-2.93.16l-2.68.17q-.89.06-1.37.12-.48.07-.92.11-.45.04-2.15.14-1.71.1-3.79.15-2.07.06-3.28.04l-1.71-.04-2-.15q-1.52-.12-2.39-.17l-1.56-.06-1.77-.06-2.54-.08q-1.46-.04-2.38 0-.93.04-1.43.1l-.91.11-.69.1-.54.12-.57.17-.89.32q-.58.22-.91.42-.33.2-.56.42-.24.23-.34.38-.11.14-.16.17-.05.04-.37.76-.33.73-.44 1.28-.1.55-.13 1-.03.46-.02.74 0 .28.03.7l.06.87.09.66q.03.2.3 1.22.27 1.03.42 1.4l.17.43.32.64q.3.58.58 1.01.28.43.74 1.04.45.62.67.88l.6.71q.4.45.97 1.18.58.72.86 1.19.29.46.6 1.27.31.8.42 1.26.11.44.17 1.1.06.67.05 1.44v.8l-.06.35q-.05.33-.12.55l-.18.62-.18.59q-.06.18-.23.58l-.24.6-.25.72-.31.9q-.13.36-.35 1.23-.23.87-.32 1.43-.1.57-.16 1.12-.06.54-.03 1.4.02.85.06 1.22.05.37.17.76.12.38.97 1.7.68.27 1.17.32.49.05.77.03.29-.03.74-.03.46-.01.95-.06.48-.04.87-.13l.9-.2q.52-.1 1.36-.22.85-.12 1.41-.23l1.27-.29q.7-.17 1.47-.3.76-.14 1.08-.18.31-.04 2.3-.44 1.99-.4 3.18-.6l1.8-.27 1.22-.16q.64-.08 2.27-.34t2.89-.4q1.25-.15 1.74-.18l1.14-.1q.65-.08 1.93-.15 1.27-.08 2.77-.26t2.3-.31q.8-.14 1.41-.2l.9-.08.49-.04q.22-.02.7-.03.48-.01 2.51-.16 2.04-.15 3.45-.32 1.42-.18 3.08-.31 1.65-.14 2.8-.21 1.16-.07 1.82-.13.66-.07 1.67-.12 1-.05 1.93-.15l1.47-.18q.54-.06 1.12-.1.57-.03 1.84-.2 1.27-.18 3.97-.44t4.05-.3l1.88-.04q.53 0 1.85.09 1.32.1 3.94.16t3.98.04l1.85-.05 1.94-.15q1.46-.13 2.34-.29.88-.16 1.35-.3.46-.15.68-.24.2-.1.66-.27l.9-.36q.44-.18.7-.32.27-.14.43-.25l.63-.4.68-.5q.24-.19.4-.36l.3-.32.37-.39.24-.24.3-.36q.29-.36.56-.78.28-.42.76-1.22t.6-1.06l.18-.36.56-1.26q.53-1.15.97-2l.68-1.31.51-.92q.27-.46.4-.74l.45-.98q.32-.7.45-1.15.14-.44.24-1.45.1-1 .06-1.52-.03-.52-.08-.76-.23-.32-.36-.62z"/>
        <path fill="#6e4c44" stroke="#6e4c44" d="M152.9 1039.57l.04 1.16-.04 2.04q-.05 1.83-.07 4.29-.02 2.45.02 3.89.05 1.44.16 2.93.12 1.5.19 3.4t.2 4.1q.12 2.2.2 3.27.1 1.08.13 1.7.03.6.02.62l.11 1.32.21 2.45q.1 1.15.16 2.48.07 1.33 0 2.44-.09 1.1-.16 1.43-.06.32-.34 1.27l-.08.09-.27.44q-.06.12-.54.53-.48.42-.75.6-.28.19-.49.3-.2.1-.43.18-.23.08-.74.17-.5.1-.89.13l-.6.06q-.2.02-.25.01l-1.12.05q-1.08.04-1.62.03h-.82l-.5.01q-.2.01-.96-.1-.75-.12-1.1-.23-.36-.1-.57-.24-.22-.13-.56-.5-.35-.36-.49-.57-.14-.2-.22-.35l-.19-.35q-.1-.22-.45-1.17-.34-.95-.62-2.27-.27-1.32-.41-2.17l-.22-1.4q-.07-.55-.1-.94l-.1-1.06-.2-1.89q-.14-1.23-.21-2.78l-.13-2.6-.09-1.73q-.02-.66 0-2.52 0-1.86.03-3.65.02-1.8.1-3.38l.1-2.55q.03-.96.1-1.85.06-.88.11-1.32.05-.43.12-.82l.1-.71q.05-.33.12-.63.07-.3.14-.52.07-.23.16-.63.1-.4.18-.65l.1-.39.1-.29q.07-.15.53-.73t.6-.7q.13-.12.6-.39l.7-.41.59-.33.44-.24q.1-.05.57-.2.47-.16.88-.32.42-.15.89-.36.47-.2.91-.36.45-.17.72-.24l.73-.24q.48-.16 1.03-.22.56-.07.92-.02l.54.07q.17.03.33.09.17.06.55.34l.5.38.37.34.42.38.2.17.16.2.1.2q.1.51.15 1.46z"/>
    </g>
</svg>
