<svg xmlns="http://www.w3.org/2000/svg" viewBox="552.1 -66.3 418.1 203.1">
    <g fill="none" stroke="#853A2A" stroke-linecap="round" stroke-linejoin="round" stroke-width="8">
        <path d="M574.5 128.2l.6-5.7.4-3.7.3-2.5.6-4.2.6-4 .5-2.3q0-.6 1-3.8.7-3.3 1.5-5.5l1.1-3.3M590.5 76.5l1.2-1.3 2-2.2 1.2-1.1 1.7-1.5 3.3-2.6 4-2.7 4-2.1q1.7-.9 4.7-2l3.5-1.3M634.8 56.4l6.8-.4h6l13.7 1.3M680 60.2l7.6 1.8 8 2.2q4.7 1.2 12 3.5M725.8 73.3l7.7 2.2q6.4 1.9 9.7 2.7l5.7 1.3 7.3 1.5M775.4 83.9q9 .8 15.2 1 6.3.3 12 .1M821.4 84.4q20-1.6 25.4-2.3M865.5 78.9l5.6-1.5q1.9-.5 7.6-2.6l6.3-2.3M901.8 63l7.5-6 5-4.4M928 37.3q2.8-3.6 7.7-10.7M946.4 7.7l1.7-3.7 2.5-5.6q.9-2 2.2-5.6l1.4-4M959-29.6l1.1-6.7.5-3.7.1-1.4.3-3.5.4-5 .1-3.5V-55l.1-2.6"/>
        <path d="M560.7 114.2l.4-.3 1.8-.1 2.6-.2H583l1.1-.1h4.3l.7-.1q.3 0 .4-.2v.3"/>
        <path d="M589.5 113.5q-1.3.7-2.3 1.8l-1.6 1.6-2.4 2.8q-2 2.1-2.1 2.4l-1 1-1.2 1.5-1 1.1-1.1 1.2-.8.7-.4.3-.6.3h-.5"/>
        <path d="M560.7 114.2l.6.6v.3l.2.4 2.1 2.4 2.6 2.8 1.3 1.4.8 1 1.6 1.6 1.6 1.7 1 .9 2 .9"/>
        <path d="M567 121.6l5.7-1.8-.4-.9-.1-.2h0l.1.1.3.3M581.7 121.3q-1-1-1.6-3h-.6-.4q.4.4.6.4l.3.1"/>
    </g>
</svg>
