<svg xmlns="http://www.w3.org/2000/svg" viewBox="-1548 1394.6 1442.2 359.9">
  <g fill="none" stroke="#853A2A" stroke-linecap="round" stroke-linejoin="round" stroke-width="5">
    <path d="M-515.2 1590.7l18-2M-489.8 1588.2l16.4-1.1M-463.8 1586.4l25.7-1.7M-430 1584.1l24.7-1.6M-396.5 1582l29-1.8M-359.3 1579.7l9.6-.6q8.6-.5 15.8-1.2M-325.6 1577.2q14.5-1.3 26-2.7M-290.7 1573.5l22.3-2.9M-260 1569.5l24.4-3.2M-228.4 1565.3q22-3 26.2-3.9M-193 1559.6q25.6-4.9 26.6-5.2M-156.6 1551.7q8.3-2.4 14-4.7 5.6-2.4 8.7-4.2M-127.1 1537.1q1-1.2 2.6-4.8 1.6-3.7 1.6-6.1-.1-2.5-.8-4-.7-1.6-1.3-2.5M-130.6 1513.7q-4-3.2-8.1-5.4-4.2-2.2-11-4M-158.3 1502q-15.1-4.2-24.5-5.7M-193.3 1494.6l-14.4-2-13.4-2M-230.2 1489q-15.3-2.8-22.8-4.4M-259.9 1483.1l-15.8-3.6M-285.6 1476.8q-8.8-2.5-14.2-4.5-5.4-2-9.1-3.7M-317.7 1464q-2.9-1.4-6.1-3.6-3.3-2-9-7M-338.6 1448.3l-4.8-4.6M-348 1438.4q-2.1-2.5-3.7-5-1.7-2.3-2.6-4-1-1.7-2.4-4.6-1.4-3-2-5.2-.8-2.1-1.4-4.4l-1.1-3.4M-361.2 1411.8l-.7.4-7.2 7-.9 1-.9 1-1 1"/>
    <path d="M-344.6 1418.9l-.3-.2q-.5-.4-1.8-1l-2-1.2-1.4-.6-1.2-.6-1.8-.8-2-1-1.6-.5-1.1-.4-3.4-.8M-344.6 1418.9l-.8.2-2.9.5-4.7.7-4.7.5-4.2.5-2.8.3-7.2.7"/>
    <path d="M-352 1415l-2.1.8-.3.2-2 .5-3.5.7-2.8.5-1.8.5M-515.2 1590.7h-1.6M-525.5 1591.2l-6.6.4-4.9.3-7.1.5-8.2.5M-561.1 1593.3l-11.3.6-12.6.8M-594.7 1595.4l-7.1.5-6.8.5-8.5.6M-626.2 1597.6l-22.5 1.5M-658.4 1599.7l-25 1.6M-692 1601.8l-21.2 1.3M-722.6 1603.6l-9.9.4-10.7.5M-752 1605l-17 .7M-778.7 1606.2l-8.3.5-8 .4-6.3.4M-810 1608l-21.8 1M-840.3 1609.5l-15.9.8M-865.8 1610.8l-9.9.4-10.7.5M-895.7 1612.2l-7 .3-11.5.5M-923 1613.3l-24.3 1M-957 1614.8l-10.7.6-8.5.4M-985.4 1616.3l-20.4 1.1M-1015.1 1618l-8.5.4-13.9.6M-1047.2 1619.5l-23.9 1M-1080.1 1620.8l-21.1.6M-1110.4 1621.7l-22.8.4M-1142.7 1622.3l-14.6.2M-1168 1622.6l-22.3.4M-1199.8 1623.2l-13.1.3M-1223.6 1623.9l-23 1M-1255.8 1625.4l-19 1.2M-1283.6 1627.3l-15.4 1.3M-1309.3 1629.4l-15.6 1.3M-1335 1631.5l-21 1.7M-1365.5 1634l-16.4 1.6M-1391.6 1636.6l-12.3 1.3-6.5.8-4.2.5M-1424.8 1640.6l-7 1-10.4 1.7M-1452.6 1645.3q-5.5 1.1-11.4 2.7-5.9 1.5-9 2.5M-1482.8 1653.9l-5 2.2-4.1 2-4.7 2.7M-1503.8 1665.4l-5.7 6-2.5 2.8M-1518.2 1681.8q-2.6 3.4-4.7 6.7M-1527.7 1697.3l-1.7 5q-.7 2.3-1 4.8M-1530.9 1715.5q.1 1.8.7 4.5l.7 3.2M-1526.6 1729.3l1.3 2.1.5.8.7 1 .8 1 .5.6 1.6 2.6"/>
  </g>
</svg>
