<svg xmlns="http://www.w3.org/2000/svg" viewBox="-86 1972 310 298">
    <g stroke="#E3B23C" stroke-linecap="round" stroke-linejoin="round">
        <path fill="#E3B23C" stroke-width=".5" d="M80 2188l6-1h2l4-1 8-3 13-8 14-12 10-13 6-10 3-8 2-12q1-9-1-18-1-9-4-16l-5-9-5-7-7-8q-4-4-18-12l-18-8-9-2-13-1H56l-10 2-10 4-7 4-4 3-6 5q-4 3-8 10-5 6-9 16l-4 14-1 4v19l1 6 1 5 2 8 4 9 3 5 3 5 4 6 5 5 6 5 6 5 6 3 5 2 7 3 9 2h14l7-1z"/>
        <path fill="none" stroke-width="15.2" d="M42 2163l-1 2-3 6-5 10-4 8-4 7-5 10-11 20-2 4M91 2075l2-8 3-16 4-17 3-14 2-12 2-9 1-7 2-9M213 2054h-1l-9 5-13 6-17 8-19 7-12 5-7 3-5 1M-3 2121l-3 1-20 3-20 3-7 1-10 1-8 1-4 1M39 2070v-1l-5-6-13-14-13-14-10-11-10-10-3-3M130 2259l-1-3-3-12-5-18-4-10-1-6-3-7-2-7-1-4-3-7-4-12M206 2171l-3-1-9-4-13-6-14-7-12-6-5-2-4-2-7-4"/>
    </g>
</svg>
