<svg xmlns="http://www.w3.org/2000/svg" viewBox="0 0 600 1046">
    <path d="M264 12l-6 12a388 388 0 01-46 93c-11 19-24 36-41 53-17 18-20 22-20 27-1 5 3 6 18 6l19-1 48-5c8 0 12 1 13 3 2 4 0 15-6 27l-22 29-44 46c-18 19-41 36-65 49-18 9-21 12-20 14l22 1c22-1 32-2 59-8l42-7c8 0 9 0 13 2 9 4 10 12 5 26-4 12-15 38-20 46-9 16-29 41-43 55-14 13-36 28-56 38a468 468 0 01-56 24c-2 2-2 2-1 3 2 3 17 6 32 7l25 3c21 2 61 2 79-1 37-6 43-6 44 1 1 4-1 12-6 24-10 27-23 45-41 58-23 18-46 31-75 43l-78 26c-17 5-27 10-28 13-2 5 4 9 19 11a454 454 0 00168-10c26-6 33-8 38-7 4 1 4 1 4 6 0 7-3 12-14 29-15 23-34 43-57 61-62 46-78 56-114 73-27 13-32 16-33 18-1 6 36 4 80-4 35-7 71-15 87-21l52-20c7-3 16-4 19-3 4 1 6 7 9 18l1 67a726 726 0 01-6 100l12-2 9-3 25-8c5-4 5-6 5-64 0-54 0-70 4-89 1-11 3-14 6-15 4-1 11 3 35 17 36 21 64 33 93 40 22 6 30 6 61 6 24 0 29 0 40-2 12-2 18-4 19-7 0-2-5-6-15-10a383 383 0 01-58-27l-43-26c-16-12-45-38-52-46-13-15-24-36-20-41 1-2 10 0 28 9 43 20 54 24 79 25 13 1 23 0 39-4 19-4 34-11 44-20 5-6 7-9 7-14 0-8-7-13-31-20-17-4-35-11-51-19l-30-11c-36-12-64-25-87-40-31-20-50-36-41-36l18 6a207 207 0 0093 14c31-2 79-14 118-30 15-6 24-14 22-19s-14-9-42-15a501 501 0 01-82-22c-20-6-45-16-54-20-25-13-42-24-54-37-8-8-12-14-13-21-1-8 2-8 27-5a430 430 0 00165-21v-5c-2-4-8-6-26-11a760 760 0 01-148-64c-11-8-31-28-36-36l-9-15c-8-16-10-26-6-28 3-1 10 1 24 5 29 10 59 14 96 13 35-1 60-5 61-11 0-1-1-3-6-6l-7-4a231 231 0 01-50-27l-31-16c-35-18-51-29-60-40-4-6-8-15-8-19 0-3 2-7 5-8 5-2 37-1 62 2 33 4 56 4 64-2 3-2 3-2-1-6-3-4-11-9-23-16a239 239 0 01-57-40 364 364 0 01-91-90l-10-13c-6-8-12-14-14-14l-3 3z"/>
</svg>
